<svg preserveAspectRatio="none" width="100%" height="100%" overflow="visible" style="display: block;" viewBox="0 0 50.6159 17.6" fill="none" xmlns="http://www.w3.org/2000/svg">
<g id="Component 8">
<path id="Vector" d="M7.93127 0C3.45387 0 0.661315 3.56509 1.68034 7.04451L0 7.05052V9.28847H1.68335V17.6H5.52649V9.28847H8.50692V7.02948H7.1437C5.25445 7.02948 4.16328 5.97739 4.16328 4.50746C4.16328 3.27952 5.40625 2.33114 6.81455 2.33114C9.96031 2.33114 10.8877 5.04403 10.8877 5.04403V17.6H14.7308V3.20437C13.8576 2.06811 11.4528 0 7.93127 0Z" fill="var(--fill-0, white)"/>
<path id="Vector_2" d="M20.0223 11.6652L27.3571 9.45748C27.3571 9.31449 27.3571 9.17308 27.3336 9.03009C27.1435 7.05967 25.624 5.01854 22.1106 5.01854C18.858 5.01854 16.1286 7.5342 16.1286 11.4986C16.1286 15.2258 18.9302 17.6 22.1813 17.6C25.4323 17.6 27.167 15.9863 27.4043 13.469C26.7161 14.0866 25.5533 14.4668 24.224 14.4668C22.7752 14.4668 20.7577 13.8257 20.0223 11.6652ZM21.7554 6.89468C22.8239 6.89468 23.6552 7.65362 23.4886 9.76703H19.7379C19.7379 8.05745 20.5927 6.89468 21.7554 6.89468Z" fill="var(--fill-0, white)"/>
<path id="Vector_3" d="M36.6114 5.25581C34.5232 5.25581 33.3588 6.395 32.79 7.60648V5.27938L28.802 5.73034V17.6H32.79V8.12816C33.1216 8.03388 33.4311 7.9616 33.8114 7.9616C35.4251 7.9616 36.1856 8.8871 36.1856 10.691V17.5984H40.1736V9.40877C40.1736 6.51285 38.5834 5.25424 36.613 5.25424L36.6114 5.25581Z" fill="var(--fill-0, white)"/>
<path id="Vector_4" d="M47.4119 5.49309V1.93251L43.4239 2.40704V5.49309H41.5714V7.63007H43.4239V17.6H47.4119V7.63007H50.6158V5.49309H47.4119Z" fill="var(--fill-0, white)"/>
</g>
</svg>
