<svg preserveAspectRatio="xMidYMid meet" width="100%" height="100%" overflow="visible" style="display: block;" viewBox="0 0 1025 1025" fill="none" xmlns="http://www.w3.org/2000/svg">
<g id="Group 9" opacity="0.24">
<g id="Ellipse 40">
<mask id="path-1-inside-1_0_4" fill="white">
<path d="M877 513C877 465.199 867.585 417.866 849.292 373.703C830.999 329.541 804.187 289.414 770.387 255.613C736.586 221.813 696.459 195.001 652.297 176.708C608.134 158.415 560.801 149 513 149C465.199 149 417.866 158.415 373.703 176.708C329.541 195.001 289.414 221.813 255.613 255.613C221.813 289.414 195.001 329.541 176.708 373.703C158.415 417.866 149 465.199 149 513L513 513H877Z"/>
</mask>
<path d="M877 513C877 465.199 867.585 417.866 849.292 373.703C830.999 329.541 804.187 289.414 770.387 255.613C736.586 221.813 696.459 195.001 652.297 176.708C608.134 158.415 560.801 149 513 149C465.199 149 417.866 158.415 373.703 176.708C329.541 195.001 289.414 221.813 255.613 255.613C221.813 289.414 195.001 329.541 176.708 373.703C158.415 417.866 149 465.199 149 513L513 513H877Z" stroke="var(--stroke-0, #4D4D4D)" stroke-width="2" mask="url(#path-1-inside-1_0_4)"/>
</g>
<g id="Ellipse 42">
<mask id="path-2-inside-2_0_4" fill="white">
<path d="M958 513C958 394.979 911.116 281.791 827.663 198.337C744.209 114.884 631.021 68 513 68C394.979 68 281.791 114.884 198.338 198.337C114.884 281.791 68 394.979 68 513L513 513H958Z"/>
</mask>
<path d="M958 513C958 394.979 911.116 281.791 827.663 198.337C744.209 114.884 631.021 68 513 68C394.979 68 281.791 114.884 198.338 198.337C114.884 281.791 68 394.979 68 513L513 513H958Z" stroke="var(--stroke-0, #4D4D4D)" stroke-width="2" mask="url(#path-2-inside-2_0_4)"/>
</g>
<g id="Ellipse 43">
<mask id="path-3-inside-3_0_4" fill="white">
<path d="M1025 512.5C1025 376.577 971.005 246.22 874.892 150.108C778.78 53.9954 648.423 1.02619e-05 512.5 0C376.577 -1.02619e-05 246.22 53.9954 150.108 150.108C53.9954 246.22 2.05239e-05 376.576 0 512.5L512.5 512.5H1025Z"/>
</mask>
<path d="M1025 512.5C1025 376.577 971.005 246.22 874.892 150.108C778.78 53.9954 648.423 1.02619e-05 512.5 0C376.577 -1.02619e-05 246.22 53.9954 150.108 150.108C53.9954 246.22 2.05239e-05 376.576 0 512.5L512.5 512.5H1025Z" stroke="var(--stroke-0, #4D4D4D)" stroke-width="2" mask="url(#path-3-inside-3_0_4)"/>
</g>
<circle id="Ellipse 41" cx="513" cy="543" r="249.5" stroke="var(--stroke-0, #4D4D4D)"/>
</g>
</svg>
