<svg xmlns="http://www.w3.org/2000/svg" fill="none" overflow="visible" preserveAspectRatio="none" style="display:block" viewBox="0 0 393 2.176"><g fill="var(--fill-0, #4d4d4d)"><path d="M.544 1.088A.526.526 0 0 1 0 .544C0 .229.229 0 .544 0s.544.229.544.544a.526.526 0 0 1-.544.544m1.088 0a.526.526 0 0 1-.544-.544c0-.315.229-.544.544-.544s.544.229.544.544-.23.544-.544.544m1.088 0a.526.526 0 0 1-.544-.544c0-.315.229-.544.544-.544s.544.229.544.544a.526.526 0 0 1-.544.544m1.088 0a.526.526 0 0 1-.544-.544c0-.315.229-.544.544-.544s.544.229.544.544a.526.526 0 0 1-.544.544m1.088 0a.526.526 0 0 1-.544-.544c0-.315.229-.544.544-.544s.544.229.544.544a.526.526 0 0 1-.544.544m1.088 0A.526.526 0 0 1 5.44.544c0-.315.229-.544.544-.544s.544.229.544.544a.526.526 0 0 1-.544.544m1.088 0a.526.526 0 0 1-.544-.544c0-.315.229-.544.544-.544s.544.229.544.544a.526.526 0 0 1-.544.544m1.088 0a.526.526 0 0 1-.544-.544c0-.315.229-.544.544-.544s.544.229.544.544a.526.526 0 0 1-.544.544M.544 2.176A.526.526 0 0 1 0 1.632c0-.315.229-.544.544-.544s.544.229.544.544a.526.526 0 0 1-.544.544m1.088 0a.526.526 0 0 1-.544-.544c0-.315.229-.544.544-.544s.544.229.544.544-.23.544-.544.544m1.088 0a.526.526 0 0 1-.544-.544c0-.315.229-.544.544-.544s.544.229.544.544a.526.526 0 0 1-.544.544m1.088 0a.526.526 0 0 1-.544-.544c0-.315.229-.544.544-.544s.544.229.544.544a.526.526 0 0 1-.544.544m1.088 0a.526.526 0 0 1-.544-.544c0-.315.229-.544.544-.544s.544.229.544.544a.526.526 0 0 1-.544.544m1.088 0a.526.526 0 0 1-.544-.544c0-.315.229-.544.544-.544s.544.229.544.544a.526.526 0 0 1-.544.544m1.088 0a.526.526 0 0 1-.544-.544c0-.315.229-.544.544-.544s.544.229.544.544a.526.526 0 0 1-.544.544m1.088 0a.526.526 0 0 1-.544-.544c0-.315.229-.544.544-.544s.544.229.544.544a.526.526 0 0 1-.544.544M10.398 1.088a.526.526 0 0 1-.544-.544c0-.315.229-.544.544-.544s.544.229.544.544a.526.526 0 0 1-.544.544m1.088 0a.526.526 0 0 1-.544-.544c0-.315.229-.544.544-.544s.544.229.544.544-.23.544-.544.544m1.088 0a.526.526 0 0 1-.544-.544c0-.315.229-.544.544-.544s.544.229.544.544a.526.526 0 0 1-.544.544m1.088 0a.526.526 0 0 1-.544-.544c0-.315.229-.544.544-.544s.544.229.544.544a.526.526 0 0 1-.544.544m1.088 0a.526.526 0 0 1-.544-.544c0-.315.229-.544.544-.544s.544.229.544.544-.23.544-.544.544m1.088 0a.526.526 0 0 1-.544-.544c0-.315.229-.544.543-.544.316 0 .544.229.544.544a.526.526 0 0 1-.543.544m1.088 0a.526.526 0 0 1-.544-.544c0-.315.229-.544.543-.544s.544.229.544.544-.229.544-.544.544m1.088 0a.526.526 0 0 1-.544-.544c0-.315.229-.544.544-.544.314 0 .544.229.544.544s-.23.544-.544.544m-7.616 1.088a.526.526 0 0 1-.544-.544c0-.315.229-.544.544-.544s.544.229.544.544a.526.526 0 0 1-.544.544m1.088 0a.526.526 0 0 1-.544-.544c0-.315.229-.544.544-.544s.544.229.544.544-.23.544-.544.544m1.088 0a.526.526 0 0 1-.544-.544c0-.315.229-.544.544-.544s.544.229.544.544a.526.526 0 0 1-.544.544m1.088 0a.526.526 0 0 1-.544-.544c0-.315.229-.544.544-.544s.544.229.544.544a.526.526 0 0 1-.544.544m1.088 0a.526.526 0 0 1-.544-.544c0-.315.229-.544.544-.544s.544.229.544.544-.23.544-.544.544m1.088 0a.526.526 0 0 1-.544-.544c0-.315.229-.544.543-.544.316 0 .544.229.544.544a.526.526 0 0 1-.543.544m1.088 0a.526.526 0 0 1-.544-.544c0-.315.229-.544.543-.544s.544.229.544.544-.229.544-.544.544m1.088 0a.526.526 0 0 1-.544-.544c0-.315.229-.544.544-.544.314 0 .544.229.544.544s-.23.544-.544.544M20.252 1.088a.526.526 0 0 1-.544-.544c0-.315.229-.544.544-.544.314 0 .544.229.544.544s-.23.544-.544.544m1.087 0a.526.526 0 0 1-.543-.544c0-.315.229-.544.543-.544s.544.229.544.544a.526.526 0 0 1-.544.544m1.088 0a.526.526 0 0 1-.544-.544c0-.315.23-.544.544-.544s.544.229.544.544-.229.544-.544.544m1.088 0a.526.526 0 0 1-.544-.544c0-.315.23-.544.544-.544s.544.229.544.544-.229.544-.544.544m1.088 0a.526.526 0 0 1-.544-.544c0-.315.23-.544.544-.544s.544.229.544.544a.526.526 0 0 1-.544.544m1.088 0a.526.526 0 0 1-.544-.544c0-.315.23-.544.544-.544s.544.229.544.544-.229.544-.544.544m1.088 0a.526.526 0 0 1-.544-.544c0-.315.23-.544.544-.544s.544.229.544.544a.526.526 0 0 1-.544.544m1.088 0a.526.526 0 0 1-.544-.544c0-.315.23-.544.544-.544s.544.229.544.544a.526.526 0 0 1-.544.544m-7.616 1.088a.526.526 0 0 1-.544-.544c0-.315.23-.544.544-.544s.544.229.544.544-.229.544-.544.544m1.088 0a.526.526 0 0 1-.543-.544c0-.315.229-.544.543-.544s.544.229.544.544a.526.526 0 0 1-.544.544m1.088 0a.526.526 0 0 1-.544-.544c0-.315.23-.544.544-.544s.544.229.544.544-.229.544-.544.544m1.088 0a.526.526 0 0 1-.544-.544c0-.315.23-.544.544-.544s.544.229.544.544-.229.544-.544.544m1.088 0a.526.526 0 0 1-.544-.544c0-.315.23-.544.544-.544s.544.229.544.544a.526.526 0 0 1-.544.544m1.088 0a.526.526 0 0 1-.544-.544c0-.315.23-.544.544-.544s.544.229.544.544-.229.544-.544.544m1.088 0a.526.526 0 0 1-.544-.544c0-.315.23-.544.544-.544s.544.229.544.544a.526.526 0 0 1-.544.544m1.088 0a.526.526 0 0 1-.544-.544c0-.315.23-.544.544-.544s.544.229.544.544a.526.526 0 0 1-.544.544M30.105 1.088a.526.526 0 0 1-.544-.544c0-.315.23-.544.544-.544s.544.229.544.544a.526.526 0 0 1-.544.544m1.088 0a.526.526 0 0 1-.544-.544c0-.315.23-.544.544-.544s.544.229.544.544-.229.544-.544.544m1.088 0a.526.526 0 0 1-.544-.544c0-.315.23-.544.544-.544s.544.229.544.544a.526.526 0 0 1-.544.544m1.088 0a.526.526 0 0 1-.544-.544c0-.315.23-.544.544-.544s.544.229.544.544a.526.526 0 0 1-.544.544m1.088 0a.526.526 0 0 1-.544-.544c0-.315.23-.544.544-.544s.544.229.544.544-.229.544-.544.544m1.088 0a.526.526 0 0 1-.544-.544c0-.315.23-.544.544-.544s.544.229.544.544a.526.526 0 0 1-.544.544m1.088 0a.526.526 0 0 1-.544-.544c0-.315.23-.544.544-.544s.544.229.544.544a.526.526 0 0 1-.544.544m1.088 0a.526.526 0 0 1-.544-.544c0-.315.229-.544.544-.544s.544.229.544.544-.23.544-.544.544m-7.616 1.088a.526.526 0 0 1-.544-.544c0-.315.23-.544.544-.544s.544.229.544.544a.526.526 0 0 1-.544.544m1.088 0a.526.526 0 0 1-.544-.544c0-.315.23-.544.544-.544s.544.229.544.544-.229.544-.544.544m1.088 0a.526.526 0 0 1-.544-.544c0-.315.23-.544.544-.544s.544.229.544.544a.526.526 0 0 1-.544.544m1.088 0a.526.526 0 0 1-.544-.544c0-.315.23-.544.544-.544s.544.229.544.544a.526.526 0 0 1-.544.544m1.088 0a.526.526 0 0 1-.544-.544c0-.315.23-.544.544-.544s.544.229.544.544-.229.544-.544.544m1.088 0a.526.526 0 0 1-.544-.544c0-.315.23-.544.544-.544s.544.229.544.544a.526.526 0 0 1-.544.544m1.088 0a.526.526 0 0 1-.544-.544c0-.315.23-.544.544-.544s.544.229.544.544a.526.526 0 0 1-.544.544m1.088 0a.526.526 0 0 1-.544-.544c0-.315.229-.544.544-.544s.544.229.544.544-.23.544-.544.544M39.959 1.088a.526.526 0 0 1-.544-.544c0-.315.23-.544.544-.544s.544.229.544.544-.23.544-.544.544m1.088 0a.526.526 0 0 1-.544-.544c0-.315.229-.544.544-.544s.544.229.544.544a.526.526 0 0 1-.544.544m1.088 0a.526.526 0 0 1-.544-.544c0-.315.229-.544.544-.544s.544.229.544.544a.526.526 0 0 1-.544.544m1.088 0a.526.526 0 0 1-.544-.544c0-.315.229-.544.544-.544s.544.229.544.544-.23.544-.544.544m1.088 0a.526.526 0 0 1-.544-.544c0-.315.229-.544.544-.544s.544.229.544.544a.526.526 0 0 1-.544.544m1.088 0a.526.526 0 0 1-.544-.544c0-.315.229-.544.544-.544s.544.229.544.544-.23.544-.544.544m1.088 0a.526.526 0 0 1-.544-.544c0-.315.229-.544.544-.544s.544.229.544.544-.23.544-.544.544m1.088 0a.526.526 0 0 1-.544-.544c0-.315.229-.544.544-.544s.544.229.544.544a.526.526 0 0 1-.544.544m-7.616 1.088a.526.526 0 0 1-.544-.544c0-.315.23-.544.544-.544s.544.229.544.544-.23.544-.544.544m1.088 0a.526.526 0 0 1-.544-.544c0-.315.229-.544.544-.544s.544.229.544.544a.526.526 0 0 1-.544.544m1.088 0a.526.526 0 0 1-.544-.544c0-.315.229-.544.544-.544s.544.229.544.544a.526.526 0 0 1-.544.544m1.088 0a.526.526 0 0 1-.544-.544c0-.315.229-.544.544-.544s.544.229.544.544-.23.544-.544.544m1.088 0a.526.526 0 0 1-.544-.544c0-.315.229-.544.544-.544s.544.229.544.544a.526.526 0 0 1-.544.544m1.088 0a.526.526 0 0 1-.544-.544c0-.315.229-.544.544-.544s.544.229.544.544-.23.544-.544.544m1.088 0a.526.526 0 0 1-.544-.544c0-.315.229-.544.544-.544s.544.229.544.544-.23.544-.544.544m1.088 0a.526.526 0 0 1-.544-.544c0-.315.229-.544.544-.544s.544.229.544.544a.526.526 0 0 1-.544.544M49.813 1.088a.526.526 0 0 1-.544-.544c0-.315.229-.544.544-.544s.544.229.544.544a.526.526 0 0 1-.544.544m1.088 0a.526.526 0 0 1-.544-.544c0-.315.229-.544.544-.544s.544.229.544.544-.23.544-.544.544m1.088 0a.526.526 0 0 1-.544-.544c0-.315.229-.544.544-.544s.544.229.544.544a.526.526 0 0 1-.544.544m1.088 0a.526.526 0 0 1-.544-.544c0-.315.229-.544.544-.544s.544.229.544.544a.526.526 0 0 1-.544.544m1.088 0a.526.526 0 0 1-.544-.544c0-.315.229-.544.544-.544s.544.229.544.544-.23.544-.544.544m1.088 0a.526.526 0 0 1-.544-.544c0-.315.229-.544.544-.544s.544.229.544.544a.526.526 0 0 1-.544.544m1.087 0a.526.526 0 0 1-.544-.544c0-.315.23-.544.544-.544.316 0 .544.229.544.544a.526.526 0 0 1-.544.544m1.088 0a.526.526 0 0 1-.543-.544c0-.315.229-.544.544-.544.314 0 .543.229.543.544s-.229.544-.544.544m-7.615 1.088a.526.526 0 0 1-.544-.544c0-.315.229-.544.544-.544s.544.229.544.544a.526.526 0 0 1-.544.544m1.088 0a.526.526 0 0 1-.544-.544c0-.315.229-.544.544-.544s.544.229.544.544-.23.544-.544.544m1.088 0a.526.526 0 0 1-.544-.544c0-.315.229-.544.544-.544s.544.229.544.544a.526.526 0 0 1-.544.544m1.088 0a.526.526 0 0 1-.544-.544c0-.315.229-.544.544-.544s.544.229.544.544a.526.526 0 0 1-.544.544m1.088 0a.526.526 0 0 1-.544-.544c0-.315.229-.544.544-.544s.544.229.544.544-.23.544-.544.544m1.088 0a.526.526 0 0 1-.544-.544c0-.315.229-.544.544-.544s.544.229.544.544a.526.526 0 0 1-.544.544m1.087 0a.526.526 0 0 1-.544-.544c0-.315.23-.544.544-.544.316 0 .544.229.544.544a.526.526 0 0 1-.544.544m1.088 0a.526.526 0 0 1-.543-.544c0-.315.229-.544.544-.544.314 0 .543.229.543.544s-.229.544-.544.544M59.667 1.088a.526.526 0 0 1-.544-.544c0-.315.229-.544.544-.544.314 0 .544.229.544.544s-.23.544-.544.544m1.087 0a.526.526 0 0 1-.543-.544c0-.315.229-.544.544-.544.314 0 .543.229.543.544a.526.526 0 0 1-.544.544m1.088 0a.526.526 0 0 1-.544-.544c0-.315.23-.544.544-.544s.544.229.544.544a.526.526 0 0 1-.544.544m1.088 0a.526.526 0 0 1-.544-.544c0-.315.23-.544.544-.544s.544.229.544.544-.229.544-.544.544m1.088 0a.526.526 0 0 1-.544-.544c0-.315.23-.544.544-.544s.544.229.544.544a.526.526 0 0 1-.544.544m1.088 0a.526.526 0 0 1-.544-.544c0-.315.23-.544.544-.544s.544.229.544.544-.229.544-.544.544m1.088 0a.526.526 0 0 1-.544-.544c0-.315.23-.544.544-.544s.544.229.544.544-.229.544-.544.544m1.088 0a.526.526 0 0 1-.544-.544c0-.315.23-.544.544-.544s.544.229.544.544a.526.526 0 0 1-.544.544m-7.615 1.088a.526.526 0 0 1-.544-.544c0-.315.229-.544.544-.544.314 0 .544.229.544.544s-.23.544-.544.544m1.087 0a.526.526 0 0 1-.543-.544c0-.315.229-.544.544-.544.314 0 .543.229.543.544a.526.526 0 0 1-.544.544m1.088 0a.526.526 0 0 1-.544-.544c0-.315.23-.544.544-.544s.544.229.544.544a.526.526 0 0 1-.544.544m1.088 0a.526.526 0 0 1-.544-.544c0-.315.23-.544.544-.544s.544.229.544.544-.229.544-.544.544m1.088 0a.526.526 0 0 1-.544-.544c0-.315.23-.544.544-.544s.544.229.544.544a.526.526 0 0 1-.544.544m1.088 0a.526.526 0 0 1-.544-.544c0-.315.23-.544.544-.544s.544.229.544.544-.229.544-.544.544m1.088 0a.526.526 0 0 1-.544-.544c0-.315.23-.544.544-.544s.544.229.544.544-.229.544-.544.544m1.088 0a.526.526 0 0 1-.544-.544c0-.315.23-.544.544-.544s.544.229.544.544a.526.526 0 0 1-.544.544M69.52 1.088a.526.526 0 0 1-.544-.544c0-.315.23-.544.544-.544s.544.229.544.544a.526.526 0 0 1-.544.544m1.088 0a.526.526 0 0 1-.544-.544c0-.315.23-.544.544-.544s.544.229.544.544-.229.544-.544.544m1.088 0a.526.526 0 0 1-.544-.544c0-.315.23-.544.544-.544s.544.229.544.544-.229.544-.544.544m1.088 0a.526.526 0 0 1-.544-.544c0-.315.23-.544.544-.544s.544.229.544.544a.526.526 0 0 1-.544.544m1.088 0a.526.526 0 0 1-.544-.544c0-.315.23-.544.544-.544s.544.229.544.544-.229.544-.544.544m1.088 0a.526.526 0 0 1-.544-.544c0-.315.23-.544.544-.544s.544.229.544.544a.526.526 0 0 1-.544.544m1.088 0a.526.526 0 0 1-.544-.544c0-.315.23-.544.544-.544s.544.229.544.544a.526.526 0 0 1-.544.544m1.088 0a.526.526 0 0 1-.544-.544c0-.315.23-.544.544-.544s.544.229.544.544-.23.544-.544.544M69.52 2.176a.526.526 0 0 1-.544-.544c0-.315.23-.544.544-.544s.544.229.544.544a.526.526 0 0 1-.544.544m1.088 0a.526.526 0 0 1-.544-.544c0-.315.23-.544.544-.544s.544.229.544.544-.229.544-.544.544m1.088 0a.526.526 0 0 1-.544-.544c0-.315.23-.544.544-.544s.544.229.544.544-.229.544-.544.544m1.088 0a.526.526 0 0 1-.544-.544c0-.315.23-.544.544-.544s.544.229.544.544a.526.526 0 0 1-.544.544m1.088 0a.526.526 0 0 1-.544-.544c0-.315.23-.544.544-.544s.544.229.544.544-.229.544-.544.544m1.088 0a.526.526 0 0 1-.544-.544c0-.315.23-.544.544-.544s.544.229.544.544a.526.526 0 0 1-.544.544m1.088 0a.526.526 0 0 1-.544-.544c0-.315.23-.544.544-.544s.544.229.544.544a.526.526 0 0 1-.544.544m1.088 0a.526.526 0 0 1-.544-.544c0-.315.23-.544.544-.544s.544.229.544.544-.23.544-.544.544M79.374 1.088a.526.526 0 0 1-.544-.544c0-.315.23-.544.544-.544s.544.229.544.544-.23.544-.544.544m1.088 0a.526.526 0 0 1-.544-.544c0-.315.229-.544.544-.544s.544.229.544.544a.526.526 0 0 1-.544.544m1.088 0a.526.526 0 0 1-.544-.544c0-.315.229-.544.544-.544s.544.229.544.544a.526.526 0 0 1-.544.544m1.088 0a.526.526 0 0 1-.544-.544c0-.315.229-.544.544-.544s.544.229.544.544-.23.544-.544.544m1.088 0a.526.526 0 0 1-.544-.544c0-.315.229-.544.544-.544s.544.229.544.544a.526.526 0 0 1-.544.544m1.088 0a.526.526 0 0 1-.544-.544c0-.315.229-.544.544-.544s.544.229.544.544-.23.544-.544.544m1.088 0a.526.526 0 0 1-.544-.544c0-.315.229-.544.544-.544s.544.229.544.544-.23.544-.544.544m1.088 0a.526.526 0 0 1-.544-.544c0-.315.229-.544.544-.544s.544.229.544.544a.526.526 0 0 1-.544.544m-7.616 1.088a.526.526 0 0 1-.544-.544c0-.315.23-.544.544-.544s.544.229.544.544-.23.544-.544.544m1.088 0a.526.526 0 0 1-.544-.544c0-.315.229-.544.544-.544s.544.229.544.544a.526.526 0 0 1-.544.544m1.088 0a.526.526 0 0 1-.544-.544c0-.315.229-.544.544-.544s.544.229.544.544a.526.526 0 0 1-.544.544m1.088 0a.526.526 0 0 1-.544-.544c0-.315.229-.544.544-.544s.544.229.544.544-.23.544-.544.544m1.088 0a.526.526 0 0 1-.544-.544c0-.315.229-.544.544-.544s.544.229.544.544a.526.526 0 0 1-.544.544m1.088 0a.526.526 0 0 1-.544-.544c0-.315.229-.544.544-.544s.544.229.544.544-.23.544-.544.544m1.088 0a.526.526 0 0 1-.544-.544c0-.315.229-.544.544-.544s.544.229.544.544-.23.544-.544.544m1.088 0a.526.526 0 0 1-.544-.544c0-.315.229-.544.544-.544s.544.229.544.544a.526.526 0 0 1-.544.544M89.228 1.088a.526.526 0 0 1-.544-.544c0-.315.229-.544.544-.544s.544.229.544.544a.526.526 0 0 1-.544.544m1.088 0a.526.526 0 0 1-.544-.544c0-.315.229-.544.544-.544s.544.229.544.544a.526.526 0 0 1-.544.544m1.088 0a.526.526 0 0 1-.544-.544c0-.315.229-.544.544-.544s.544.229.544.544-.23.544-.544.544m1.088 0a.526.526 0 0 1-.544-.544c0-.315.229-.544.544-.544s.544.229.544.544a.526.526 0 0 1-.544.544m1.088 0a.526.526 0 0 1-.544-.544c0-.315.229-.544.544-.544.314 0 .544.229.544.544s-.23.544-.544.544m1.088 0a.526.526 0 0 1-.544-.544c0-.315.229-.544.544-.544.314 0 .544.229.544.544s-.23.544-.544.544m1.087 0a.526.526 0 0 1-.543-.544c0-.315.229-.544.543-.544.316 0 .544.229.544.544a.526.526 0 0 1-.544.544m1.089 0A.526.526 0 0 1 96.3.544c0-.315.229-.544.544-.544.314 0 .544.229.544.544s-.23.544-.544.544m-7.616 1.088a.526.526 0 0 1-.544-.544c0-.315.229-.544.544-.544s.544.229.544.544a.526.526 0 0 1-.544.544m1.088 0a.526.526 0 0 1-.544-.544c0-.315.229-.544.544-.544s.544.229.544.544a.526.526 0 0 1-.544.544m1.088 0a.526.526 0 0 1-.544-.544c0-.315.229-.544.544-.544s.544.229.544.544-.23.544-.544.544m1.088 0a.526.526 0 0 1-.544-.544c0-.315.229-.544.544-.544s.544.229.544.544a.526.526 0 0 1-.544.544m1.088 0a.526.526 0 0 1-.544-.544c0-.315.229-.544.544-.544.314 0 .544.229.544.544s-.23.544-.544.544m1.088 0a.526.526 0 0 1-.544-.544c0-.315.229-.544.544-.544.314 0 .544.229.544.544s-.23.544-.544.544m1.087 0a.526.526 0 0 1-.543-.544c0-.315.229-.544.543-.544.316 0 .544.229.544.544a.526.526 0 0 1-.544.544m1.089 0a.526.526 0 0 1-.544-.544c0-.315.229-.544.544-.544.314 0 .544.229.544.544s-.23.544-.544.544M99.082 1.088a.526.526 0 0 1-.544-.544c0-.315.229-.544.544-.544.314 0 .544.229.544.544s-.23.544-.544.544m1.087 0a.526.526 0 0 1-.543-.544c0-.315.228-.544.543-.544s.544.229.544.544a.526.526 0 0 1-.544.544m1.088 0a.526.526 0 0 1-.544-.544c0-.315.229-.544.544-.544s.544.229.544.544a.526.526 0 0 1-.544.544m1.088 0a.526.526 0 0 1-.544-.544c0-.315.229-.544.544-.544s.544.229.544.544a.526.526 0 0 1-.544.544m1.088 0a.526.526 0 0 1-.544-.544c0-.315.229-.544.544-.544s.544.229.544.544a.526.526 0 0 1-.544.544m1.088 0a.526.526 0 0 1-.544-.544c0-.315.229-.544.544-.544s.544.229.544.544a.526.526 0 0 1-.544.544m1.088 0a.526.526 0 0 1-.544-.544c0-.315.229-.544.544-.544s.544.229.544.544a.526.526 0 0 1-.544.544m1.088 0a.526.526 0 0 1-.544-.544c0-.315.229-.544.544-.544s.544.229.544.544a.526.526 0 0 1-.544.544m-7.615 1.088a.526.526 0 0 1-.544-.544c0-.315.229-.544.544-.544.314 0 .544.229.544.544s-.23.544-.544.544m1.087 0a.526.526 0 0 1-.543-.544c0-.315.228-.544.543-.544s.544.229.544.544a.526.526 0 0 1-.544.544m1.088 0a.526.526 0 0 1-.544-.544c0-.315.229-.544.544-.544s.544.229.544.544a.526.526 0 0 1-.544.544m1.088 0a.526.526 0 0 1-.544-.544c0-.315.229-.544.544-.544s.544.229.544.544a.526.526 0 0 1-.544.544m1.088 0a.526.526 0 0 1-.544-.544c0-.315.229-.544.544-.544s.544.229.544.544a.526.526 0 0 1-.544.544m1.088 0a.526.526 0 0 1-.544-.544c0-.315.229-.544.544-.544s.544.229.544.544a.526.526 0 0 1-.544.544m1.088 0a.526.526 0 0 1-.544-.544c0-.315.229-.544.544-.544s.544.229.544.544a.526.526 0 0 1-.544.544m1.088 0a.526.526 0 0 1-.544-.544c0-.315.229-.544.544-.544s.544.229.544.544a.526.526 0 0 1-.544.544M108.935 1.088a.526.526 0 0 1-.544-.544c0-.315.229-.544.544-.544s.544.229.544.544a.526.526 0 0 1-.544.544m1.088 0a.526.526 0 0 1-.544-.544c0-.315.229-.544.544-.544s.544.229.544.544a.526.526 0 0 1-.544.544m1.088 0a.526.526 0 0 1-.544-.544c0-.315.229-.544.544-.544s.544.229.544.544a.526.526 0 0 1-.544.544m1.088 0a.526.526 0 0 1-.544-.544c0-.315.229-.544.544-.544s.544.229.544.544a.526.526 0 0 1-.544.544m1.088 0a.526.526 0 0 1-.544-.544c0-.315.229-.544.544-.544s.544.229.544.544a.526.526 0 0 1-.544.544m1.088 0a.526.526 0 0 1-.544-.544c0-.315.229-.544.544-.544s.544.229.544.544a.526.526 0 0 1-.544.544m1.088 0a.526.526 0 0 1-.544-.544c0-.315.229-.544.544-.544s.544.229.544.544a.526.526 0 0 1-.544.544m1.088 0a.526.526 0 0 1-.544-.544c0-.315.229-.544.544-.544s.544.229.544.544a.526.526 0 0 1-.544.544m-7.616 1.088a.526.526 0 0 1-.544-.544c0-.315.229-.544.544-.544s.544.229.544.544a.526.526 0 0 1-.544.544m1.088 0a.526.526 0 0 1-.544-.544c0-.315.229-.544.544-.544s.544.229.544.544a.526.526 0 0 1-.544.544m1.088 0a.526.526 0 0 1-.544-.544c0-.315.229-.544.544-.544s.544.229.544.544a.526.526 0 0 1-.544.544m1.088 0a.526.526 0 0 1-.544-.544c0-.315.229-.544.544-.544s.544.229.544.544a.526.526 0 0 1-.544.544m1.088 0a.526.526 0 0 1-.544-.544c0-.315.229-.544.544-.544s.544.229.544.544a.526.526 0 0 1-.544.544m1.088 0a.526.526 0 0 1-.544-.544c0-.315.229-.544.544-.544s.544.229.544.544a.526.526 0 0 1-.544.544m1.088 0a.526.526 0 0 1-.544-.544c0-.315.229-.544.544-.544s.544.229.544.544a.526.526 0 0 1-.544.544m1.088 0a.526.526 0 0 1-.544-.544c0-.315.229-.544.544-.544s.544.229.544.544a.526.526 0 0 1-.544.544M118.789 1.088a.526.526 0 0 1-.544-.544c0-.315.229-.544.544-.544s.544.229.544.544a.526.526 0 0 1-.544.544m1.088 0a.526.526 0 0 1-.544-.544c0-.315.229-.544.544-.544s.544.229.544.544a.526.526 0 0 1-.544.544m1.088 0a.526.526 0 0 1-.544-.544c0-.315.229-.544.544-.544s.544.229.544.544a.526.526 0 0 1-.544.544m1.088 0a.526.526 0 0 1-.544-.544c0-.315.229-.544.544-.544s.544.229.544.544a.526.526 0 0 1-.544.544m1.088 0a.526.526 0 0 1-.544-.544c0-.315.229-.544.544-.544s.544.229.544.544a.526.526 0 0 1-.544.544m1.088 0a.526.526 0 0 1-.544-.544c0-.315.229-.544.544-.544s.544.229.544.544a.526.526 0 0 1-.544.544m1.088 0a.526.526 0 0 1-.544-.544c0-.315.229-.544.544-.544s.544.229.544.544a.526.526 0 0 1-.544.544m1.088 0a.526.526 0 0 1-.544-.544c0-.315.229-.544.544-.544s.544.229.544.544a.526.526 0 0 1-.544.544m-7.616 1.088a.526.526 0 0 1-.544-.544c0-.315.229-.544.544-.544s.544.229.544.544a.526.526 0 0 1-.544.544m1.088 0a.526.526 0 0 1-.544-.544c0-.315.229-.544.544-.544s.544.229.544.544a.526.526 0 0 1-.544.544m1.088 0a.526.526 0 0 1-.544-.544c0-.315.229-.544.544-.544s.544.229.544.544a.526.526 0 0 1-.544.544m1.088 0a.526.526 0 0 1-.544-.544c0-.315.229-.544.544-.544s.544.229.544.544a.526.526 0 0 1-.544.544m1.088 0a.526.526 0 0 1-.544-.544c0-.315.229-.544.544-.544s.544.229.544.544a.526.526 0 0 1-.544.544m1.088 0a.526.526 0 0 1-.544-.544c0-.315.229-.544.544-.544s.544.229.544.544a.526.526 0 0 1-.544.544m1.088 0a.526.526 0 0 1-.544-.544c0-.315.229-.544.544-.544s.544.229.544.544a.526.526 0 0 1-.544.544m1.088 0a.526.526 0 0 1-.544-.544c0-.315.229-.544.544-.544s.544.229.544.544a.526.526 0 0 1-.544.544M128.643 1.088a.526.526 0 0 1-.544-.544c0-.315.229-.544.544-.544s.544.229.544.544a.526.526 0 0 1-.544.544m1.088 0a.526.526 0 0 1-.544-.544c0-.315.229-.544.544-.544s.544.229.544.544a.526.526 0 0 1-.544.544m1.088 0a.526.526 0 0 1-.544-.544c0-.315.229-.544.544-.544s.544.229.544.544a.526.526 0 0 1-.544.544m1.088 0a.526.526 0 0 1-.544-.544c0-.315.229-.544.544-.544s.544.229.544.544a.526.526 0 0 1-.544.544m1.088 0a.526.526 0 0 1-.544-.544c0-.315.229-.544.544-.544s.544.229.544.544a.526.526 0 0 1-.544.544m1.088 0a.526.526 0 0 1-.544-.544c0-.315.229-.544.544-.544s.544.229.544.544a.526.526 0 0 1-.544.544m1.088 0a.526.526 0 0 1-.544-.544c0-.315.229-.544.544-.544.314 0 .544.229.544.544s-.23.544-.544.544m1.088 0a.526.526 0 0 1-.544-.544c0-.315.229-.544.544-.544.314 0 .543.229.543.544a.526.526 0 0 1-.543.544m-7.616 1.088a.526.526 0 0 1-.544-.544c0-.315.229-.544.544-.544s.544.229.544.544a.526.526 0 0 1-.544.544m1.088 0a.526.526 0 0 1-.544-.544c0-.315.229-.544.544-.544s.544.229.544.544a.526.526 0 0 1-.544.544m1.088 0a.526.526 0 0 1-.544-.544c0-.315.229-.544.544-.544s.544.229.544.544a.526.526 0 0 1-.544.544m1.088 0a.526.526 0 0 1-.544-.544c0-.315.229-.544.544-.544s.544.229.544.544a.526.526 0 0 1-.544.544m1.088 0a.526.526 0 0 1-.544-.544c0-.315.229-.544.544-.544s.544.229.544.544a.526.526 0 0 1-.544.544m1.088 0a.526.526 0 0 1-.544-.544c0-.315.229-.544.544-.544s.544.229.544.544a.526.526 0 0 1-.544.544m1.088 0a.526.526 0 0 1-.544-.544c0-.315.229-.544.544-.544.314 0 .544.229.544.544s-.23.544-.544.544m1.088 0a.526.526 0 0 1-.544-.544c0-.315.229-.544.544-.544.314 0 .543.229.543.544a.526.526 0 0 1-.543.544M138.497 1.088a.526.526 0 0 1-.544-.544c0-.315.229-.544.544-.544.314 0 .543.229.543.544a.526.526 0 0 1-.543.544m1.087 0a.527.527 0 0 1-.544-.544c0-.315.23-.544.544-.544s.544.229.544.544a.526.526 0 0 1-.544.544m1.088 0a.527.527 0 0 1-.544-.544c0-.315.23-.544.544-.544s.544.229.544.544a.526.526 0 0 1-.544.544m1.088 0a.526.526 0 0 1-.544-.544c0-.315.229-.544.544-.544s.544.229.544.544a.526.526 0 0 1-.544.544m1.088 0a.526.526 0 0 1-.544-.544c0-.315.229-.544.544-.544s.544.229.544.544a.526.526 0 0 1-.544.544m1.088 0a.526.526 0 0 1-.544-.544c0-.315.229-.544.544-.544s.544.229.544.544a.526.526 0 0 1-.544.544m1.088 0a.526.526 0 0 1-.544-.544c0-.315.229-.544.544-.544s.544.229.544.544a.526.526 0 0 1-.544.544m1.088 0a.526.526 0 0 1-.544-.544c0-.315.229-.544.544-.544s.544.229.544.544a.526.526 0 0 1-.544.544m-7.615 1.088a.526.526 0 0 1-.544-.544c0-.315.229-.544.544-.544.314 0 .543.229.543.544a.526.526 0 0 1-.543.544m1.087 0a.527.527 0 0 1-.544-.544c0-.315.23-.544.544-.544s.544.229.544.544a.526.526 0 0 1-.544.544m1.088 0a.527.527 0 0 1-.544-.544c0-.315.23-.544.544-.544s.544.229.544.544a.526.526 0 0 1-.544.544m1.088 0a.526.526 0 0 1-.544-.544c0-.315.229-.544.544-.544s.544.229.544.544a.526.526 0 0 1-.544.544m1.088 0a.526.526 0 0 1-.544-.544c0-.315.229-.544.544-.544s.544.229.544.544a.526.526 0 0 1-.544.544m1.088 0a.526.526 0 0 1-.544-.544c0-.315.229-.544.544-.544s.544.229.544.544a.526.526 0 0 1-.544.544m1.088 0a.526.526 0 0 1-.544-.544c0-.315.229-.544.544-.544s.544.229.544.544a.526.526 0 0 1-.544.544m1.088 0a.526.526 0 0 1-.544-.544c0-.315.229-.544.544-.544s.544.229.544.544a.526.526 0 0 1-.544.544M148.35 1.088a.526.526 0 0 1-.544-.544c0-.315.229-.544.544-.544s.544.229.544.544a.526.526 0 0 1-.544.544m1.088 0a.526.526 0 0 1-.544-.544c0-.315.229-.544.544-.544s.544.229.544.544a.526.526 0 0 1-.544.544m1.088 0a.526.526 0 0 1-.544-.544c0-.315.229-.544.544-.544s.544.229.544.544a.526.526 0 0 1-.544.544m1.088 0a.526.526 0 0 1-.544-.544c0-.315.229-.544.544-.544s.544.229.544.544a.526.526 0 0 1-.544.544m1.088 0a.526.526 0 0 1-.544-.544c0-.315.229-.544.544-.544s.544.229.544.544a.526.526 0 0 1-.544.544m1.088 0a.526.526 0 0 1-.544-.544c0-.315.229-.544.544-.544s.544.229.544.544a.526.526 0 0 1-.544.544m1.088 0a.526.526 0 0 1-.544-.544c0-.315.229-.544.544-.544s.544.229.544.544a.526.526 0 0 1-.544.544m1.088 0a.526.526 0 0 1-.544-.544c0-.315.229-.544.544-.544s.544.229.544.544a.526.526 0 0 1-.544.544m-7.616 1.088a.526.526 0 0 1-.544-.544c0-.315.229-.544.544-.544s.544.229.544.544a.526.526 0 0 1-.544.544m1.088 0a.526.526 0 0 1-.544-.544c0-.315.229-.544.544-.544s.544.229.544.544a.526.526 0 0 1-.544.544m1.088 0a.526.526 0 0 1-.544-.544c0-.315.229-.544.544-.544s.544.229.544.544a.526.526 0 0 1-.544.544m1.088 0a.526.526 0 0 1-.544-.544c0-.315.229-.544.544-.544s.544.229.544.544a.526.526 0 0 1-.544.544m1.088 0a.526.526 0 0 1-.544-.544c0-.315.229-.544.544-.544s.544.229.544.544a.526.526 0 0 1-.544.544m1.088 0a.526.526 0 0 1-.544-.544c0-.315.229-.544.544-.544s.544.229.544.544a.526.526 0 0 1-.544.544m1.088 0a.526.526 0 0 1-.544-.544c0-.315.229-.544.544-.544s.544.229.544.544a.526.526 0 0 1-.544.544m1.088 0a.526.526 0 0 1-.544-.544c0-.315.229-.544.544-.544s.544.229.544.544a.526.526 0 0 1-.544.544M158.204 1.088a.526.526 0 0 1-.544-.544c0-.315.229-.544.544-.544s.544.229.544.544a.526.526 0 0 1-.544.544m1.088 0a.526.526 0 0 1-.544-.544c0-.315.229-.544.544-.544s.544.229.544.544a.526.526 0 0 1-.544.544m1.088 0a.526.526 0 0 1-.544-.544c0-.315.229-.544.544-.544s.544.229.544.544a.526.526 0 0 1-.544.544m1.088 0a.526.526 0 0 1-.544-.544c0-.315.229-.544.544-.544s.544.229.544.544a.526.526 0 0 1-.544.544m1.088 0a.526.526 0 0 1-.544-.544c0-.315.229-.544.544-.544s.544.229.544.544a.526.526 0 0 1-.544.544m1.088 0a.526.526 0 0 1-.544-.544c0-.315.229-.544.544-.544s.544.229.544.544a.526.526 0 0 1-.544.544m1.088 0a.526.526 0 0 1-.544-.544c0-.315.229-.544.544-.544s.544.229.544.544a.526.526 0 0 1-.544.544m1.088 0a.526.526 0 0 1-.544-.544c0-.315.229-.544.544-.544s.544.229.544.544a.526.526 0 0 1-.544.544m-7.616 1.088a.526.526 0 0 1-.544-.544c0-.315.229-.544.544-.544s.544.229.544.544a.526.526 0 0 1-.544.544m1.088 0a.526.526 0 0 1-.544-.544c0-.315.229-.544.544-.544s.544.229.544.544a.526.526 0 0 1-.544.544m1.088 0a.526.526 0 0 1-.544-.544c0-.315.229-.544.544-.544s.544.229.544.544a.526.526 0 0 1-.544.544m1.088 0a.526.526 0 0 1-.544-.544c0-.315.229-.544.544-.544s.544.229.544.544a.526.526 0 0 1-.544.544m1.088 0a.526.526 0 0 1-.544-.544c0-.315.229-.544.544-.544s.544.229.544.544a.526.526 0 0 1-.544.544m1.088 0a.526.526 0 0 1-.544-.544c0-.315.229-.544.544-.544s.544.229.544.544a.526.526 0 0 1-.544.544m1.088 0a.526.526 0 0 1-.544-.544c0-.315.229-.544.544-.544s.544.229.544.544a.526.526 0 0 1-.544.544m1.088 0a.526.526 0 0 1-.544-.544c0-.315.229-.544.544-.544s.544.229.544.544a.526.526 0 0 1-.544.544M168.058 1.088a.526.526 0 0 1-.544-.544c0-.315.229-.544.544-.544s.544.229.544.544a.526.526 0 0 1-.544.544m1.088 0a.526.526 0 0 1-.544-.544c0-.315.229-.544.544-.544s.544.229.544.544a.526.526 0 0 1-.544.544m1.088 0a.526.526 0 0 1-.544-.544c0-.315.229-.544.544-.544s.544.229.544.544a.526.526 0 0 1-.544.544m1.088 0a.526.526 0 0 1-.544-.544c0-.315.229-.544.544-.544s.544.229.544.544a.526.526 0 0 1-.544.544m1.088 0a.526.526 0 0 1-.544-.544c0-.315.229-.544.544-.544s.544.229.544.544a.526.526 0 0 1-.544.544m1.088 0a.526.526 0 0 1-.544-.544c0-.315.229-.544.544-.544s.544.229.544.544a.526.526 0 0 1-.544.544m1.088 0a.526.526 0 0 1-.544-.544c0-.315.229-.544.544-.544.314 0 .544.229.544.544s-.23.544-.544.544m1.087 0a.526.526 0 0 1-.543-.544c0-.315.229-.544.543-.544s.544.229.544.544a.526.526 0 0 1-.544.544m-7.615 1.088a.526.526 0 0 1-.544-.544c0-.315.229-.544.544-.544s.544.229.544.544a.526.526 0 0 1-.544.544m1.088 0a.526.526 0 0 1-.544-.544c0-.315.229-.544.544-.544s.544.229.544.544a.526.526 0 0 1-.544.544m1.088 0a.526.526 0 0 1-.544-.544c0-.315.229-.544.544-.544s.544.229.544.544a.526.526 0 0 1-.544.544m1.088 0a.526.526 0 0 1-.544-.544c0-.315.229-.544.544-.544s.544.229.544.544a.526.526 0 0 1-.544.544m1.088 0a.526.526 0 0 1-.544-.544c0-.315.229-.544.544-.544s.544.229.544.544a.526.526 0 0 1-.544.544m1.088 0a.526.526 0 0 1-.544-.544c0-.315.229-.544.544-.544s.544.229.544.544a.526.526 0 0 1-.544.544m1.088 0a.526.526 0 0 1-.544-.544c0-.315.229-.544.544-.544.314 0 .544.229.544.544s-.23.544-.544.544m1.087 0a.526.526 0 0 1-.543-.544c0-.315.229-.544.543-.544s.544.229.544.544a.526.526 0 0 1-.544.544M177.912 1.088a.526.526 0 0 1-.544-.544c0-.315.229-.544.544-.544.314 0 .543.229.543.544a.526.526 0 0 1-.543.544m1.087 0a.527.527 0 0 1-.544-.544c0-.315.23-.544.544-.544s.544.229.544.544a.526.526 0 0 1-.544.544m1.088 0a.527.527 0 0 1-.544-.544c0-.315.23-.544.544-.544s.544.229.544.544a.526.526 0 0 1-.544.544m1.088 0a.526.526 0 0 1-.544-.544c0-.315.229-.544.544-.544s.544.229.544.544a.526.526 0 0 1-.544.544m1.088 0a.526.526 0 0 1-.544-.544c0-.315.229-.544.544-.544s.544.229.544.544a.526.526 0 0 1-.544.544m1.088 0a.526.526 0 0 1-.544-.544c0-.315.229-.544.544-.544s.544.229.544.544a.526.526 0 0 1-.544.544m1.088 0a.526.526 0 0 1-.544-.544c0-.315.229-.544.544-.544s.544.229.544.544a.526.526 0 0 1-.544.544m1.088 0a.526.526 0 0 1-.544-.544c0-.315.229-.544.544-.544s.544.229.544.544a.526.526 0 0 1-.544.544m-7.615 1.088a.526.526 0 0 1-.544-.544c0-.315.229-.544.544-.544.314 0 .543.229.543.544a.526.526 0 0 1-.543.544m1.087 0a.527.527 0 0 1-.544-.544c0-.315.23-.544.544-.544s.544.229.544.544a.526.526 0 0 1-.544.544m1.088 0a.527.527 0 0 1-.544-.544c0-.315.23-.544.544-.544s.544.229.544.544a.526.526 0 0 1-.544.544m1.088 0a.526.526 0 0 1-.544-.544c0-.315.229-.544.544-.544s.544.229.544.544a.526.526 0 0 1-.544.544m1.088 0a.526.526 0 0 1-.544-.544c0-.315.229-.544.544-.544s.544.229.544.544a.526.526 0 0 1-.544.544m1.088 0a.526.526 0 0 1-.544-.544c0-.315.229-.544.544-.544s.544.229.544.544a.526.526 0 0 1-.544.544m1.088 0a.526.526 0 0 1-.544-.544c0-.315.229-.544.544-.544s.544.229.544.544a.526.526 0 0 1-.544.544m1.088 0a.526.526 0 0 1-.544-.544c0-.315.229-.544.544-.544s.544.229.544.544a.526.526 0 0 1-.544.544M187.765 1.088a.526.526 0 0 1-.544-.544c0-.315.229-.544.544-.544s.544.229.544.544a.526.526 0 0 1-.544.544m1.088 0a.526.526 0 0 1-.544-.544c0-.315.229-.544.544-.544s.544.229.544.544a.526.526 0 0 1-.544.544m1.088 0a.526.526 0 0 1-.544-.544c0-.315.229-.544.544-.544s.544.229.544.544a.526.526 0 0 1-.544.544m1.088 0a.526.526 0 0 1-.544-.544c0-.315.229-.544.544-.544s.544.229.544.544a.526.526 0 0 1-.544.544m1.088 0a.526.526 0 0 1-.544-.544c0-.315.229-.544.544-.544s.544.229.544.544a.526.526 0 0 1-.544.544m1.088 0a.526.526 0 0 1-.544-.544c0-.315.229-.544.544-.544s.544.229.544.544a.526.526 0 0 1-.544.544m1.088 0a.526.526 0 0 1-.544-.544c0-.315.229-.544.544-.544s.544.229.544.544a.526.526 0 0 1-.544.544m1.088 0a.526.526 0 0 1-.544-.544c0-.315.229-.544.544-.544s.544.229.544.544a.526.526 0 0 1-.544.544m-7.616 1.088a.526.526 0 0 1-.544-.544c0-.315.229-.544.544-.544s.544.229.544.544a.526.526 0 0 1-.544.544m1.088 0a.526.526 0 0 1-.544-.544c0-.315.229-.544.544-.544s.544.229.544.544a.526.526 0 0 1-.544.544m1.088 0a.526.526 0 0 1-.544-.544c0-.315.229-.544.544-.544s.544.229.544.544a.526.526 0 0 1-.544.544m1.088 0a.526.526 0 0 1-.544-.544c0-.315.229-.544.544-.544s.544.229.544.544a.526.526 0 0 1-.544.544m1.088 0a.526.526 0 0 1-.544-.544c0-.315.229-.544.544-.544s.544.229.544.544a.526.526 0 0 1-.544.544m1.088 0a.526.526 0 0 1-.544-.544c0-.315.229-.544.544-.544s.544.229.544.544a.526.526 0 0 1-.544.544m1.088 0a.526.526 0 0 1-.544-.544c0-.315.229-.544.544-.544s.544.229.544.544a.526.526 0 0 1-.544.544m1.088 0a.526.526 0 0 1-.544-.544c0-.315.229-.544.544-.544s.544.229.544.544a.526.526 0 0 1-.544.544M197.619 1.088a.526.526 0 0 1-.544-.544c0-.315.229-.544.544-.544s.544.229.544.544a.526.526 0 0 1-.544.544m1.088 0a.526.526 0 0 1-.544-.544c0-.315.229-.544.544-.544s.544.229.544.544a.526.526 0 0 1-.544.544m1.088 0a.526.526 0 0 1-.544-.544c0-.315.229-.544.544-.544s.544.229.544.544a.526.526 0 0 1-.544.544m1.088 0a.526.526 0 0 1-.544-.544c0-.315.229-.544.544-.544s.544.229.544.544a.526.526 0 0 1-.544.544m1.088 0a.526.526 0 0 1-.544-.544c0-.315.229-.544.544-.544s.544.229.544.544a.526.526 0 0 1-.544.544m1.088 0a.526.526 0 0 1-.544-.544c0-.315.229-.544.544-.544s.544.229.544.544a.526.526 0 0 1-.544.544m1.088 0a.526.526 0 0 1-.544-.544c0-.315.229-.544.544-.544s.544.229.544.544a.526.526 0 0 1-.544.544m1.088 0a.526.526 0 0 1-.544-.544c0-.315.229-.544.544-.544s.544.229.544.544a.526.526 0 0 1-.544.544m-7.616 1.088a.526.526 0 0 1-.544-.544c0-.315.229-.544.544-.544s.544.229.544.544a.526.526 0 0 1-.544.544m1.088 0a.526.526 0 0 1-.544-.544c0-.315.229-.544.544-.544s.544.229.544.544a.526.526 0 0 1-.544.544m1.088 0a.526.526 0 0 1-.544-.544c0-.315.229-.544.544-.544s.544.229.544.544a.526.526 0 0 1-.544.544m1.088 0a.526.526 0 0 1-.544-.544c0-.315.229-.544.544-.544s.544.229.544.544a.526.526 0 0 1-.544.544m1.088 0a.526.526 0 0 1-.544-.544c0-.315.229-.544.544-.544s.544.229.544.544a.526.526 0 0 1-.544.544m1.088 0a.526.526 0 0 1-.544-.544c0-.315.229-.544.544-.544s.544.229.544.544a.526.526 0 0 1-.544.544m1.088 0a.526.526 0 0 1-.544-.544c0-.315.229-.544.544-.544s.544.229.544.544a.526.526 0 0 1-.544.544m1.088 0a.526.526 0 0 1-.544-.544c0-.315.229-.544.544-.544s.544.229.544.544a.526.526 0 0 1-.544.544M207.473 1.088a.526.526 0 0 1-.544-.544c0-.315.229-.544.544-.544s.544.229.544.544a.526.526 0 0 1-.544.544m1.088 0a.526.526 0 0 1-.544-.544c0-.315.229-.544.544-.544s.544.229.544.544a.526.526 0 0 1-.544.544m1.088 0a.526.526 0 0 1-.544-.544c0-.315.229-.544.544-.544s.544.229.544.544a.526.526 0 0 1-.544.544m1.088 0a.526.526 0 0 1-.544-.544c0-.315.229-.544.544-.544s.544.229.544.544a.526.526 0 0 1-.544.544m1.088 0a.526.526 0 0 1-.544-.544c0-.315.229-.544.544-.544s.544.229.544.544a.526.526 0 0 1-.544.544m1.088 0a.526.526 0 0 1-.544-.544c0-.315.229-.544.544-.544s.544.229.544.544a.526.526 0 0 1-.544.544m1.088 0a.526.526 0 0 1-.544-.544c0-.315.229-.544.544-.544.314 0 .544.229.544.544s-.23.544-.544.544m1.088 0a.526.526 0 0 1-.544-.544c0-.315.229-.544.544-.544.314 0 .543.229.543.544a.526.526 0 0 1-.543.544m-7.616 1.088a.526.526 0 0 1-.544-.544c0-.315.229-.544.544-.544s.544.229.544.544a.526.526 0 0 1-.544.544m1.088 0a.526.526 0 0 1-.544-.544c0-.315.229-.544.544-.544s.544.229.544.544a.526.526 0 0 1-.544.544m1.088 0a.526.526 0 0 1-.544-.544c0-.315.229-.544.544-.544s.544.229.544.544a.526.526 0 0 1-.544.544m1.088 0a.526.526 0 0 1-.544-.544c0-.315.229-.544.544-.544s.544.229.544.544a.526.526 0 0 1-.544.544m1.088 0a.526.526 0 0 1-.544-.544c0-.315.229-.544.544-.544s.544.229.544.544a.526.526 0 0 1-.544.544m1.088 0a.526.526 0 0 1-.544-.544c0-.315.229-.544.544-.544s.544.229.544.544a.526.526 0 0 1-.544.544m1.088 0a.526.526 0 0 1-.544-.544c0-.315.229-.544.544-.544.314 0 .544.229.544.544s-.23.544-.544.544m1.088 0a.526.526 0 0 1-.544-.544c0-.315.229-.544.544-.544.314 0 .543.229.543.544a.526.526 0 0 1-.543.544M217.327 1.088a.526.526 0 0 1-.544-.544c0-.315.229-.544.544-.544.314 0 .544.229.544.544s-.23.544-.544.544m1.087 0a.526.526 0 0 1-.543-.544c0-.315.229-.544.543-.544s.544.229.544.544a.526.526 0 0 1-.544.544m1.088 0a.527.527 0 0 1-.544-.544c0-.315.23-.544.544-.544s.544.229.544.544a.526.526 0 0 1-.544.544m1.088 0a.526.526 0 0 1-.544-.544c0-.315.229-.544.544-.544s.544.229.544.544a.526.526 0 0 1-.544.544m1.088 0a.526.526 0 0 1-.544-.544c0-.315.229-.544.544-.544s.544.229.544.544a.526.526 0 0 1-.544.544m1.088 0a.526.526 0 0 1-.544-.544c0-.315.229-.544.544-.544s.544.229.544.544a.526.526 0 0 1-.544.544m1.088 0a.526.526 0 0 1-.544-.544c0-.315.229-.544.544-.544s.544.229.544.544a.526.526 0 0 1-.544.544m1.088 0a.526.526 0 0 1-.544-.544c0-.315.229-.544.544-.544s.544.229.544.544a.526.526 0 0 1-.544.544m-7.615 1.088a.526.526 0 0 1-.544-.544c0-.315.229-.544.544-.544.314 0 .544.229.544.544s-.23.544-.544.544m1.087 0a.526.526 0 0 1-.543-.544c0-.315.229-.544.543-.544s.544.229.544.544a.526.526 0 0 1-.544.544m1.088 0a.527.527 0 0 1-.544-.544c0-.315.23-.544.544-.544s.544.229.544.544a.526.526 0 0 1-.544.544m1.088 0a.526.526 0 0 1-.544-.544c0-.315.229-.544.544-.544s.544.229.544.544a.526.526 0 0 1-.544.544m1.088 0a.526.526 0 0 1-.544-.544c0-.315.229-.544.544-.544s.544.229.544.544a.526.526 0 0 1-.544.544m1.088 0a.526.526 0 0 1-.544-.544c0-.315.229-.544.544-.544s.544.229.544.544a.526.526 0 0 1-.544.544m1.088 0a.526.526 0 0 1-.544-.544c0-.315.229-.544.544-.544s.544.229.544.544a.526.526 0 0 1-.544.544m1.088 0a.526.526 0 0 1-.544-.544c0-.315.229-.544.544-.544s.544.229.544.544a.526.526 0 0 1-.544.544M227.18 1.088a.526.526 0 0 1-.544-.544c0-.315.229-.544.544-.544s.544.229.544.544a.526.526 0 0 1-.544.544m1.088 0a.526.526 0 0 1-.544-.544c0-.315.229-.544.544-.544s.544.229.544.544a.526.526 0 0 1-.544.544m1.088 0a.526.526 0 0 1-.544-.544c0-.315.229-.544.544-.544s.544.229.544.544a.526.526 0 0 1-.544.544m1.088 0a.526.526 0 0 1-.544-.544c0-.315.229-.544.544-.544s.544.229.544.544a.526.526 0 0 1-.544.544m1.088 0a.526.526 0 0 1-.544-.544c0-.315.229-.544.544-.544s.544.229.544.544a.526.526 0 0 1-.544.544m1.088 0a.526.526 0 0 1-.544-.544c0-.315.229-.544.544-.544s.544.229.544.544a.526.526 0 0 1-.544.544m1.088 0a.526.526 0 0 1-.544-.544c0-.315.229-.544.544-.544s.544.229.544.544a.526.526 0 0 1-.544.544m1.088 0a.526.526 0 0 1-.544-.544c0-.315.229-.544.544-.544s.544.229.544.544a.526.526 0 0 1-.544.544m-7.616 1.088a.526.526 0 0 1-.544-.544c0-.315.229-.544.544-.544s.544.229.544.544a.526.526 0 0 1-.544.544m1.088 0a.526.526 0 0 1-.544-.544c0-.315.229-.544.544-.544s.544.229.544.544a.526.526 0 0 1-.544.544m1.088 0a.526.526 0 0 1-.544-.544c0-.315.229-.544.544-.544s.544.229.544.544a.526.526 0 0 1-.544.544m1.088 0a.526.526 0 0 1-.544-.544c0-.315.229-.544.544-.544s.544.229.544.544a.526.526 0 0 1-.544.544m1.088 0a.526.526 0 0 1-.544-.544c0-.315.229-.544.544-.544s.544.229.544.544a.526.526 0 0 1-.544.544m1.088 0a.526.526 0 0 1-.544-.544c0-.315.229-.544.544-.544s.544.229.544.544a.526.526 0 0 1-.544.544m1.088 0a.526.526 0 0 1-.544-.544c0-.315.229-.544.544-.544s.544.229.544.544a.526.526 0 0 1-.544.544m1.088 0a.526.526 0 0 1-.544-.544c0-.315.229-.544.544-.544s.544.229.544.544a.526.526 0 0 1-.544.544M237.034 1.088a.526.526 0 0 1-.544-.544c0-.315.229-.544.544-.544s.544.229.544.544a.526.526 0 0 1-.544.544m1.088 0a.526.526 0 0 1-.544-.544c0-.315.229-.544.544-.544s.544.229.544.544a.526.526 0 0 1-.544.544m1.088 0a.526.526 0 0 1-.544-.544c0-.315.229-.544.544-.544s.544.229.544.544a.526.526 0 0 1-.544.544m1.088 0a.526.526 0 0 1-.544-.544c0-.315.229-.544.544-.544s.544.229.544.544a.526.526 0 0 1-.544.544m1.088 0a.526.526 0 0 1-.544-.544c0-.315.229-.544.544-.544s.544.229.544.544a.526.526 0 0 1-.544.544m1.088 0a.526.526 0 0 1-.544-.544c0-.315.229-.544.544-.544s.544.229.544.544a.526.526 0 0 1-.544.544m1.088 0a.526.526 0 0 1-.544-.544c0-.315.229-.544.544-.544s.544.229.544.544a.526.526 0 0 1-.544.544m1.088 0a.526.526 0 0 1-.544-.544c0-.315.229-.544.544-.544s.544.229.544.544a.526.526 0 0 1-.544.544m-7.616 1.088a.526.526 0 0 1-.544-.544c0-.315.229-.544.544-.544s.544.229.544.544a.526.526 0 0 1-.544.544m1.088 0a.526.526 0 0 1-.544-.544c0-.315.229-.544.544-.544s.544.229.544.544a.526.526 0 0 1-.544.544m1.088 0a.526.526 0 0 1-.544-.544c0-.315.229-.544.544-.544s.544.229.544.544a.526.526 0 0 1-.544.544m1.088 0a.526.526 0 0 1-.544-.544c0-.315.229-.544.544-.544s.544.229.544.544a.526.526 0 0 1-.544.544m1.088 0a.526.526 0 0 1-.544-.544c0-.315.229-.544.544-.544s.544.229.544.544a.526.526 0 0 1-.544.544m1.088 0a.526.526 0 0 1-.544-.544c0-.315.229-.544.544-.544s.544.229.544.544a.526.526 0 0 1-.544.544m1.088 0a.526.526 0 0 1-.544-.544c0-.315.229-.544.544-.544s.544.229.544.544a.526.526 0 0 1-.544.544m1.088 0a.526.526 0 0 1-.544-.544c0-.315.229-.544.544-.544s.544.229.544.544a.526.526 0 0 1-.544.544M246.888 1.088a.526.526 0 0 1-.544-.544c0-.315.229-.544.544-.544s.544.229.544.544a.526.526 0 0 1-.544.544m1.088 0a.526.526 0 0 1-.544-.544c0-.315.229-.544.544-.544s.544.229.544.544a.526.526 0 0 1-.544.544m1.088 0a.526.526 0 0 1-.544-.544c0-.315.229-.544.544-.544s.544.229.544.544a.526.526 0 0 1-.544.544m1.088 0a.526.526 0 0 1-.544-.544c0-.315.229-.544.544-.544s.544.229.544.544a.526.526 0 0 1-.544.544m1.088 0a.526.526 0 0 1-.544-.544c0-.315.229-.544.544-.544s.544.229.544.544a.526.526 0 0 1-.544.544m1.088 0a.526.526 0 0 1-.544-.544c0-.315.229-.544.544-.544s.544.229.544.544a.526.526 0 0 1-.544.544m1.088 0a.526.526 0 0 1-.544-.544c0-.315.229-.544.544-.544.314 0 .544.229.544.544s-.23.544-.544.544m1.088 0a.526.526 0 0 1-.544-.544c0-.315.229-.544.544-.544.314 0 .544.229.544.544s-.23.544-.544.544m-7.616 1.088a.526.526 0 0 1-.544-.544c0-.315.229-.544.544-.544s.544.229.544.544a.526.526 0 0 1-.544.544m1.088 0a.526.526 0 0 1-.544-.544c0-.315.229-.544.544-.544s.544.229.544.544a.526.526 0 0 1-.544.544m1.088 0a.526.526 0 0 1-.544-.544c0-.315.229-.544.544-.544s.544.229.544.544a.526.526 0 0 1-.544.544m1.088 0a.526.526 0 0 1-.544-.544c0-.315.229-.544.544-.544s.544.229.544.544a.526.526 0 0 1-.544.544m1.088 0a.526.526 0 0 1-.544-.544c0-.315.229-.544.544-.544s.544.229.544.544a.526.526 0 0 1-.544.544m1.088 0a.526.526 0 0 1-.544-.544c0-.315.229-.544.544-.544s.544.229.544.544a.526.526 0 0 1-.544.544m1.088 0a.526.526 0 0 1-.544-.544c0-.315.229-.544.544-.544.314 0 .544.229.544.544s-.23.544-.544.544m1.088 0a.526.526 0 0 1-.544-.544c0-.315.229-.544.544-.544.314 0 .544.229.544.544s-.23.544-.544.544M256.742 1.088a.526.526 0 0 1-.544-.544c0-.315.229-.544.544-.544.314 0 .544.229.544.544s-.23.544-.544.544m1.087 0a.526.526 0 0 1-.543-.544c0-.315.229-.544.543-.544s.544.229.544.544a.526.526 0 0 1-.544.544m1.088 0a.527.527 0 0 1-.544-.544c0-.315.23-.544.544-.544s.544.229.544.544a.526.526 0 0 1-.544.544m1.088 0a.526.526 0 0 1-.544-.544c0-.315.229-.544.544-.544s.544.229.544.544a.526.526 0 0 1-.544.544m1.088 0a.526.526 0 0 1-.544-.544c0-.315.229-.544.544-.544s.544.229.544.544a.526.526 0 0 1-.544.544m1.088 0a.526.526 0 0 1-.544-.544c0-.315.229-.544.544-.544s.544.229.544.544a.526.526 0 0 1-.544.544m1.088 0a.526.526 0 0 1-.544-.544c0-.315.229-.544.544-.544s.544.229.544.544a.526.526 0 0 1-.544.544m1.088 0a.526.526 0 0 1-.544-.544c0-.315.229-.544.544-.544s.544.229.544.544a.526.526 0 0 1-.544.544m-7.615 1.088a.526.526 0 0 1-.544-.544c0-.315.229-.544.544-.544.314 0 .544.229.544.544s-.23.544-.544.544m1.087 0a.526.526 0 0 1-.543-.544c0-.315.229-.544.543-.544s.544.229.544.544a.526.526 0 0 1-.544.544m1.088 0a.527.527 0 0 1-.544-.544c0-.315.23-.544.544-.544s.544.229.544.544a.526.526 0 0 1-.544.544m1.088 0a.526.526 0 0 1-.544-.544c0-.315.229-.544.544-.544s.544.229.544.544a.526.526 0 0 1-.544.544m1.088 0a.526.526 0 0 1-.544-.544c0-.315.229-.544.544-.544s.544.229.544.544a.526.526 0 0 1-.544.544m1.088 0a.526.526 0 0 1-.544-.544c0-.315.229-.544.544-.544s.544.229.544.544a.526.526 0 0 1-.544.544m1.088 0a.526.526 0 0 1-.544-.544c0-.315.229-.544.544-.544s.544.229.544.544a.526.526 0 0 1-.544.544m1.088 0a.526.526 0 0 1-.544-.544c0-.315.229-.544.544-.544s.544.229.544.544a.526.526 0 0 1-.544.544M266.595 1.088a.526.526 0 0 1-.544-.544c0-.315.229-.544.544-.544s.544.229.544.544a.526.526 0 0 1-.544.544m1.088 0a.526.526 0 0 1-.544-.544c0-.315.229-.544.544-.544s.544.229.544.544a.526.526 0 0 1-.544.544m1.088 0a.526.526 0 0 1-.544-.544c0-.315.229-.544.544-.544s.544.229.544.544a.526.526 0 0 1-.544.544m1.088 0a.526.526 0 0 1-.544-.544c0-.315.229-.544.544-.544s.544.229.544.544a.526.526 0 0 1-.544.544m1.088 0a.526.526 0 0 1-.544-.544c0-.315.229-.544.544-.544s.544.229.544.544a.526.526 0 0 1-.544.544m1.088 0a.526.526 0 0 1-.544-.544c0-.315.229-.544.544-.544s.544.229.544.544a.526.526 0 0 1-.544.544m1.088 0a.526.526 0 0 1-.544-.544c0-.315.229-.544.544-.544s.544.229.544.544a.526.526 0 0 1-.544.544m1.088 0a.526.526 0 0 1-.544-.544c0-.315.229-.544.544-.544s.544.229.544.544a.526.526 0 0 1-.544.544m-7.616 1.088a.526.526 0 0 1-.544-.544c0-.315.229-.544.544-.544s.544.229.544.544a.526.526 0 0 1-.544.544m1.088 0a.526.526 0 0 1-.544-.544c0-.315.229-.544.544-.544s.544.229.544.544a.526.526 0 0 1-.544.544m1.088 0a.526.526 0 0 1-.544-.544c0-.315.229-.544.544-.544s.544.229.544.544a.526.526 0 0 1-.544.544m1.088 0a.526.526 0 0 1-.544-.544c0-.315.229-.544.544-.544s.544.229.544.544a.526.526 0 0 1-.544.544m1.088 0a.526.526 0 0 1-.544-.544c0-.315.229-.544.544-.544s.544.229.544.544a.526.526 0 0 1-.544.544m1.088 0a.526.526 0 0 1-.544-.544c0-.315.229-.544.544-.544s.544.229.544.544a.526.526 0 0 1-.544.544m1.088 0a.526.526 0 0 1-.544-.544c0-.315.229-.544.544-.544s.544.229.544.544a.526.526 0 0 1-.544.544m1.088 0a.526.526 0 0 1-.544-.544c0-.315.229-.544.544-.544s.544.229.544.544a.526.526 0 0 1-.544.544M276.449 1.088a.526.526 0 0 1-.544-.544c0-.315.229-.544.544-.544s.544.229.544.544a.526.526 0 0 1-.544.544m1.088 0a.526.526 0 0 1-.544-.544c0-.315.229-.544.544-.544s.544.229.544.544a.526.526 0 0 1-.544.544m1.088 0a.526.526 0 0 1-.544-.544c0-.315.229-.544.544-.544s.544.229.544.544a.526.526 0 0 1-.544.544m1.088 0a.526.526 0 0 1-.544-.544c0-.315.229-.544.544-.544s.544.229.544.544a.526.526 0 0 1-.544.544m1.088 0a.526.526 0 0 1-.544-.544c0-.315.229-.544.544-.544s.544.229.544.544a.526.526 0 0 1-.544.544m1.088 0a.526.526 0 0 1-.544-.544c0-.315.229-.544.544-.544s.544.229.544.544a.526.526 0 0 1-.544.544m1.088 0a.526.526 0 0 1-.544-.544c0-.315.229-.544.544-.544s.544.229.544.544a.526.526 0 0 1-.544.544m1.088 0a.526.526 0 0 1-.544-.544c0-.315.229-.544.544-.544s.544.229.544.544a.526.526 0 0 1-.544.544m-7.616 1.088a.526.526 0 0 1-.544-.544c0-.315.229-.544.544-.544s.544.229.544.544a.526.526 0 0 1-.544.544m1.088 0a.526.526 0 0 1-.544-.544c0-.315.229-.544.544-.544s.544.229.544.544a.526.526 0 0 1-.544.544m1.088 0a.526.526 0 0 1-.544-.544c0-.315.229-.544.544-.544s.544.229.544.544a.526.526 0 0 1-.544.544m1.088 0a.526.526 0 0 1-.544-.544c0-.315.229-.544.544-.544s.544.229.544.544a.526.526 0 0 1-.544.544m1.088 0a.526.526 0 0 1-.544-.544c0-.315.229-.544.544-.544s.544.229.544.544a.526.526 0 0 1-.544.544m1.088 0a.526.526 0 0 1-.544-.544c0-.315.229-.544.544-.544s.544.229.544.544a.526.526 0 0 1-.544.544m1.088 0a.526.526 0 0 1-.544-.544c0-.315.229-.544.544-.544s.544.229.544.544a.526.526 0 0 1-.544.544m1.088 0a.526.526 0 0 1-.544-.544c0-.315.229-.544.544-.544s.544.229.544.544a.526.526 0 0 1-.544.544M286.303 1.088a.526.526 0 0 1-.544-.544c0-.315.229-.544.544-.544s.544.229.544.544a.526.526 0 0 1-.544.544m1.088 0a.526.526 0 0 1-.544-.544c0-.315.229-.544.544-.544s.544.229.544.544a.526.526 0 0 1-.544.544m1.088 0a.526.526 0 0 1-.544-.544c0-.315.229-.544.544-.544s.544.229.544.544a.526.526 0 0 1-.544.544m1.088 0a.526.526 0 0 1-.544-.544c0-.315.229-.544.544-.544s.544.229.544.544a.526.526 0 0 1-.544.544m1.088 0a.526.526 0 0 1-.544-.544c0-.315.229-.544.544-.544s.544.229.544.544a.526.526 0 0 1-.544.544m1.088 0a.526.526 0 0 1-.544-.544c0-.315.229-.544.544-.544s.544.229.544.544a.526.526 0 0 1-.544.544m1.088 0a.526.526 0 0 1-.544-.544c0-.315.229-.544.544-.544s.544.229.544.544a.526.526 0 0 1-.544.544m1.088 0a.526.526 0 0 1-.544-.544c0-.315.229-.544.544-.544.314 0 .543.229.543.544a.526.526 0 0 1-.543.544m-7.616 1.088a.526.526 0 0 1-.544-.544c0-.315.229-.544.544-.544s.544.229.544.544a.526.526 0 0 1-.544.544m1.088 0a.526.526 0 0 1-.544-.544c0-.315.229-.544.544-.544s.544.229.544.544a.526.526 0 0 1-.544.544m1.088 0a.526.526 0 0 1-.544-.544c0-.315.229-.544.544-.544s.544.229.544.544a.526.526 0 0 1-.544.544m1.088 0a.526.526 0 0 1-.544-.544c0-.315.229-.544.544-.544s.544.229.544.544a.526.526 0 0 1-.544.544m1.088 0a.526.526 0 0 1-.544-.544c0-.315.229-.544.544-.544s.544.229.544.544a.526.526 0 0 1-.544.544m1.088 0a.526.526 0 0 1-.544-.544c0-.315.229-.544.544-.544s.544.229.544.544a.526.526 0 0 1-.544.544m1.088 0a.526.526 0 0 1-.544-.544c0-.315.229-.544.544-.544s.544.229.544.544a.526.526 0 0 1-.544.544m1.088 0a.526.526 0 0 1-.544-.544c0-.315.229-.544.544-.544.314 0 .543.229.543.544a.526.526 0 0 1-.543.544M296.157 1.088a.526.526 0 0 1-.544-.544c0-.315.229-.544.544-.544.314 0 .544.229.544.544s-.23.544-.544.544m1.088 0a.526.526 0 0 1-.544-.544c0-.315.229-.544.544-.544.314 0 .543.229.543.544a.526.526 0 0 1-.543.544m1.087 0a.527.527 0 0 1-.544-.544c0-.315.23-.544.544-.544s.544.229.544.544a.526.526 0 0 1-.544.544m1.088 0a.527.527 0 0 1-.544-.544c0-.315.23-.544.544-.544s.544.229.544.544a.526.526 0 0 1-.544.544m1.088 0a.526.526 0 0 1-.544-.544c0-.315.229-.544.544-.544s.544.229.544.544a.526.526 0 0 1-.544.544m1.088 0a.526.526 0 0 1-.544-.544c0-.315.229-.544.544-.544s.544.229.544.544a.526.526 0 0 1-.544.544m1.088 0a.526.526 0 0 1-.544-.544c0-.315.229-.544.544-.544s.544.229.544.544a.526.526 0 0 1-.544.544m1.088 0a.526.526 0 0 1-.544-.544c0-.315.229-.544.544-.544s.544.229.544.544a.526.526 0 0 1-.544.544m-7.615 1.088a.526.526 0 0 1-.544-.544c0-.315.229-.544.544-.544.314 0 .544.229.544.544s-.23.544-.544.544m1.088 0a.526.526 0 0 1-.544-.544c0-.315.229-.544.544-.544.314 0 .543.229.543.544a.526.526 0 0 1-.543.544m1.087 0a.527.527 0 0 1-.544-.544c0-.315.23-.544.544-.544s.544.229.544.544a.526.526 0 0 1-.544.544m1.088 0a.527.527 0 0 1-.544-.544c0-.315.23-.544.544-.544s.544.229.544.544a.526.526 0 0 1-.544.544m1.088 0a.526.526 0 0 1-.544-.544c0-.315.229-.544.544-.544s.544.229.544.544a.526.526 0 0 1-.544.544m1.088 0a.526.526 0 0 1-.544-.544c0-.315.229-.544.544-.544s.544.229.544.544a.526.526 0 0 1-.544.544m1.088 0a.526.526 0 0 1-.544-.544c0-.315.229-.544.544-.544s.544.229.544.544a.526.526 0 0 1-.544.544m1.088 0a.526.526 0 0 1-.544-.544c0-.315.229-.544.544-.544s.544.229.544.544a.526.526 0 0 1-.544.544M306.01 1.088a.526.526 0 0 1-.544-.544c0-.315.229-.544.544-.544s.544.229.544.544a.526.526 0 0 1-.544.544m1.088 0a.526.526 0 0 1-.544-.544c0-.315.229-.544.544-.544s.544.229.544.544a.526.526 0 0 1-.544.544m1.088 0a.526.526 0 0 1-.544-.544c0-.315.229-.544.544-.544s.544.229.544.544a.526.526 0 0 1-.544.544m1.088 0a.526.526 0 0 1-.544-.544c0-.315.229-.544.544-.544s.544.229.544.544a.526.526 0 0 1-.544.544m1.088 0a.526.526 0 0 1-.544-.544c0-.315.229-.544.544-.544s.544.229.544.544a.526.526 0 0 1-.544.544m1.088 0a.526.526 0 0 1-.544-.544c0-.315.229-.544.544-.544s.544.229.544.544a.526.526 0 0 1-.544.544m1.088 0a.526.526 0 0 1-.544-.544c0-.315.229-.544.544-.544s.544.229.544.544a.526.526 0 0 1-.544.544m1.088 0a.526.526 0 0 1-.544-.544c0-.315.229-.544.544-.544s.544.229.544.544a.526.526 0 0 1-.544.544m-7.616 1.088a.526.526 0 0 1-.544-.544c0-.315.229-.544.544-.544s.544.229.544.544a.526.526 0 0 1-.544.544m1.088 0a.526.526 0 0 1-.544-.544c0-.315.229-.544.544-.544s.544.229.544.544a.526.526 0 0 1-.544.544m1.088 0a.526.526 0 0 1-.544-.544c0-.315.229-.544.544-.544s.544.229.544.544a.526.526 0 0 1-.544.544m1.088 0a.526.526 0 0 1-.544-.544c0-.315.229-.544.544-.544s.544.229.544.544a.526.526 0 0 1-.544.544m1.088 0a.526.526 0 0 1-.544-.544c0-.315.229-.544.544-.544s.544.229.544.544a.526.526 0 0 1-.544.544m1.088 0a.526.526 0 0 1-.544-.544c0-.315.229-.544.544-.544s.544.229.544.544a.526.526 0 0 1-.544.544m1.088 0a.526.526 0 0 1-.544-.544c0-.315.229-.544.544-.544s.544.229.544.544a.526.526 0 0 1-.544.544m1.088 0a.526.526 0 0 1-.544-.544c0-.315.229-.544.544-.544s.544.229.544.544a.526.526 0 0 1-.544.544M315.864 1.088a.526.526 0 0 1-.544-.544c0-.315.229-.544.544-.544s.544.229.544.544a.526.526 0 0 1-.544.544m1.088 0a.526.526 0 0 1-.544-.544c0-.315.229-.544.544-.544s.544.229.544.544a.526.526 0 0 1-.544.544m1.088 0a.526.526 0 0 1-.544-.544c0-.315.229-.544.544-.544s.544.229.544.544a.526.526 0 0 1-.544.544m1.088 0a.526.526 0 0 1-.544-.544c0-.315.229-.544.544-.544s.544.229.544.544a.526.526 0 0 1-.544.544m1.088 0a.526.526 0 0 1-.544-.544c0-.315.229-.544.544-.544s.544.229.544.544a.526.526 0 0 1-.544.544m1.088 0a.526.526 0 0 1-.544-.544c0-.315.229-.544.544-.544s.544.229.544.544a.526.526 0 0 1-.544.544m1.088 0a.526.526 0 0 1-.544-.544c0-.315.229-.544.544-.544s.544.229.544.544a.526.526 0 0 1-.544.544m1.088 0a.526.526 0 0 1-.544-.544c0-.315.229-.544.544-.544s.544.229.544.544a.526.526 0 0 1-.544.544m-7.616 1.088a.526.526 0 0 1-.544-.544c0-.315.229-.544.544-.544s.544.229.544.544a.526.526 0 0 1-.544.544m1.088 0a.526.526 0 0 1-.544-.544c0-.315.229-.544.544-.544s.544.229.544.544a.526.526 0 0 1-.544.544m1.088 0a.526.526 0 0 1-.544-.544c0-.315.229-.544.544-.544s.544.229.544.544a.526.526 0 0 1-.544.544m1.088 0a.526.526 0 0 1-.544-.544c0-.315.229-.544.544-.544s.544.229.544.544a.526.526 0 0 1-.544.544m1.088 0a.526.526 0 0 1-.544-.544c0-.315.229-.544.544-.544s.544.229.544.544a.526.526 0 0 1-.544.544m1.088 0a.526.526 0 0 1-.544-.544c0-.315.229-.544.544-.544s.544.229.544.544a.526.526 0 0 1-.544.544m1.088 0a.526.526 0 0 1-.544-.544c0-.315.229-.544.544-.544s.544.229.544.544a.526.526 0 0 1-.544.544m1.088 0a.526.526 0 0 1-.544-.544c0-.315.229-.544.544-.544s.544.229.544.544a.526.526 0 0 1-.544.544M325.718 1.088a.526.526 0 0 1-.544-.544c0-.315.229-.544.544-.544s.544.229.544.544a.526.526 0 0 1-.544.544m1.088 0a.526.526 0 0 1-.544-.544c0-.315.229-.544.544-.544s.544.229.544.544a.526.526 0 0 1-.544.544m1.088 0a.526.526 0 0 1-.544-.544c0-.315.229-.544.544-.544s.544.229.544.544a.526.526 0 0 1-.544.544m1.088 0a.526.526 0 0 1-.544-.544c0-.315.229-.544.544-.544s.544.229.544.544a.526.526 0 0 1-.544.544m1.088 0a.526.526 0 0 1-.544-.544c0-.315.229-.544.544-.544s.544.229.544.544a.526.526 0 0 1-.544.544m1.088 0a.526.526 0 0 1-.544-.544c0-.315.229-.544.544-.544s.544.229.544.544a.526.526 0 0 1-.544.544m1.088 0a.526.526 0 0 1-.544-.544c0-.315.229-.544.544-.544s.544.229.544.544a.526.526 0 0 1-.544.544m1.088 0a.526.526 0 0 1-.544-.544c0-.315.229-.544.544-.544s.544.229.544.544a.526.526 0 0 1-.544.544m-7.616 1.088a.526.526 0 0 1-.544-.544c0-.315.229-.544.544-.544s.544.229.544.544a.526.526 0 0 1-.544.544m1.088 0a.526.526 0 0 1-.544-.544c0-.315.229-.544.544-.544s.544.229.544.544a.526.526 0 0 1-.544.544m1.088 0a.526.526 0 0 1-.544-.544c0-.315.229-.544.544-.544s.544.229.544.544a.526.526 0 0 1-.544.544m1.088 0a.526.526 0 0 1-.544-.544c0-.315.229-.544.544-.544s.544.229.544.544a.526.526 0 0 1-.544.544m1.088 0a.526.526 0 0 1-.544-.544c0-.315.229-.544.544-.544s.544.229.544.544a.526.526 0 0 1-.544.544m1.088 0a.526.526 0 0 1-.544-.544c0-.315.229-.544.544-.544s.544.229.544.544a.526.526 0 0 1-.544.544m1.088 0a.526.526 0 0 1-.544-.544c0-.315.229-.544.544-.544s.544.229.544.544a.526.526 0 0 1-.544.544m1.088 0a.526.526 0 0 1-.544-.544c0-.315.229-.544.544-.544s.544.229.544.544a.526.526 0 0 1-.544.544M335.572 1.088a.526.526 0 0 1-.544-.544c0-.315.229-.544.544-.544s.544.229.544.544a.526.526 0 0 1-.544.544m1.088 0a.526.526 0 0 1-.544-.544c0-.315.229-.544.544-.544.314 0 .544.229.544.544s-.23.544-.544.544m1.087 0a.526.526 0 0 1-.543-.544c0-.315.229-.544.543-.544s.544.229.544.544a.526.526 0 0 1-.544.544m1.088 0a.526.526 0 0 1-.544-.544c0-.315.229-.544.544-.544s.544.229.544.544a.526.526 0 0 1-.544.544m1.088 0a.526.526 0 0 1-.544-.544c0-.315.229-.544.544-.544s.544.229.544.544a.526.526 0 0 1-.544.544m1.088 0a.526.526 0 0 1-.544-.544c0-.315.229-.544.544-.544s.544.229.544.544a.526.526 0 0 1-.544.544m1.088 0a.526.526 0 0 1-.544-.544c0-.315.229-.544.544-.544s.544.229.544.544a.526.526 0 0 1-.544.544m1.088 0a.526.526 0 0 1-.544-.544c0-.315.229-.544.544-.544s.544.229.544.544a.526.526 0 0 1-.544.544m-7.615 1.088a.526.526 0 0 1-.544-.544c0-.315.229-.544.544-.544s.544.229.544.544a.526.526 0 0 1-.544.544m1.088 0a.526.526 0 0 1-.544-.544c0-.315.229-.544.544-.544.314 0 .544.229.544.544s-.23.544-.544.544m1.087 0a.526.526 0 0 1-.543-.544c0-.315.229-.544.543-.544s.544.229.544.544a.526.526 0 0 1-.544.544m1.088 0a.526.526 0 0 1-.544-.544c0-.315.229-.544.544-.544s.544.229.544.544a.526.526 0 0 1-.544.544m1.088 0a.526.526 0 0 1-.544-.544c0-.315.229-.544.544-.544s.544.229.544.544a.526.526 0 0 1-.544.544m1.088 0a.526.526 0 0 1-.544-.544c0-.315.229-.544.544-.544s.544.229.544.544a.526.526 0 0 1-.544.544m1.088 0a.526.526 0 0 1-.544-.544c0-.315.229-.544.544-.544s.544.229.544.544a.526.526 0 0 1-.544.544m1.088 0a.526.526 0 0 1-.544-.544c0-.315.229-.544.544-.544s.544.229.544.544a.526.526 0 0 1-.544.544M345.425 1.088a.526.526 0 0 1-.544-.544c0-.315.229-.544.544-.544s.544.229.544.544a.526.526 0 0 1-.544.544m1.088 0a.526.526 0 0 1-.544-.544c0-.315.229-.544.544-.544s.544.229.544.544a.526.526 0 0 1-.544.544m1.088 0a.526.526 0 0 1-.544-.544c0-.315.229-.544.544-.544s.544.229.544.544a.526.526 0 0 1-.544.544m1.088 0a.526.526 0 0 1-.544-.544c0-.315.229-.544.544-.544s.544.229.544.544a.526.526 0 0 1-.544.544m1.088 0a.526.526 0 0 1-.544-.544c0-.315.229-.544.544-.544s.544.229.544.544a.526.526 0 0 1-.544.544m1.088 0a.526.526 0 0 1-.544-.544c0-.315.229-.544.544-.544s.544.229.544.544a.526.526 0 0 1-.544.544m1.088 0a.526.526 0 0 1-.544-.544c0-.315.229-.544.544-.544s.544.229.544.544a.526.526 0 0 1-.544.544m1.088 0a.526.526 0 0 1-.544-.544c0-.315.229-.544.544-.544s.544.229.544.544a.526.526 0 0 1-.544.544m-7.616 1.088a.526.526 0 0 1-.544-.544c0-.315.229-.544.544-.544s.544.229.544.544a.526.526 0 0 1-.544.544m1.088 0a.526.526 0 0 1-.544-.544c0-.315.229-.544.544-.544s.544.229.544.544a.526.526 0 0 1-.544.544m1.088 0a.526.526 0 0 1-.544-.544c0-.315.229-.544.544-.544s.544.229.544.544a.526.526 0 0 1-.544.544m1.088 0a.526.526 0 0 1-.544-.544c0-.315.229-.544.544-.544s.544.229.544.544a.526.526 0 0 1-.544.544m1.088 0a.526.526 0 0 1-.544-.544c0-.315.229-.544.544-.544s.544.229.544.544a.526.526 0 0 1-.544.544m1.088 0a.526.526 0 0 1-.544-.544c0-.315.229-.544.544-.544s.544.229.544.544a.526.526 0 0 1-.544.544m1.088 0a.526.526 0 0 1-.544-.544c0-.315.229-.544.544-.544s.544.229.544.544a.526.526 0 0 1-.544.544m1.088 0a.526.526 0 0 1-.544-.544c0-.315.229-.544.544-.544s.544.229.544.544a.526.526 0 0 1-.544.544M355.279 1.088a.526.526 0 0 1-.544-.544c0-.315.229-.544.544-.544s.544.229.544.544a.526.526 0 0 1-.544.544m1.088 0a.526.526 0 0 1-.544-.544c0-.315.229-.544.544-.544s.544.229.544.544a.526.526 0 0 1-.544.544m1.088 0a.526.526 0 0 1-.544-.544c0-.315.229-.544.544-.544s.544.229.544.544a.526.526 0 0 1-.544.544m1.088 0a.526.526 0 0 1-.544-.544c0-.315.229-.544.544-.544s.544.229.544.544a.526.526 0 0 1-.544.544m1.088 0a.526.526 0 0 1-.544-.544c0-.315.229-.544.544-.544s.544.229.544.544a.526.526 0 0 1-.544.544m1.088 0a.526.526 0 0 1-.544-.544c0-.315.229-.544.544-.544s.544.229.544.544a.526.526 0 0 1-.544.544m1.088 0a.526.526 0 0 1-.544-.544c0-.315.229-.544.544-.544s.544.229.544.544a.526.526 0 0 1-.544.544m1.088 0a.526.526 0 0 1-.544-.544c0-.315.229-.544.544-.544s.544.229.544.544a.526.526 0 0 1-.544.544m-7.616 1.088a.526.526 0 0 1-.544-.544c0-.315.229-.544.544-.544s.544.229.544.544a.526.526 0 0 1-.544.544m1.088 0a.526.526 0 0 1-.544-.544c0-.315.229-.544.544-.544s.544.229.544.544a.526.526 0 0 1-.544.544m1.088 0a.526.526 0 0 1-.544-.544c0-.315.229-.544.544-.544s.544.229.544.544a.526.526 0 0 1-.544.544m1.088 0a.526.526 0 0 1-.544-.544c0-.315.229-.544.544-.544s.544.229.544.544a.526.526 0 0 1-.544.544m1.088 0a.526.526 0 0 1-.544-.544c0-.315.229-.544.544-.544s.544.229.544.544a.526.526 0 0 1-.544.544m1.088 0a.526.526 0 0 1-.544-.544c0-.315.229-.544.544-.544s.544.229.544.544a.526.526 0 0 1-.544.544m1.088 0a.526.526 0 0 1-.544-.544c0-.315.229-.544.544-.544s.544.229.544.544a.526.526 0 0 1-.544.544m1.088 0a.526.526 0 0 1-.544-.544c0-.315.229-.544.544-.544s.544.229.544.544a.526.526 0 0 1-.544.544M365.133 1.088a.526.526 0 0 1-.544-.544c0-.315.229-.544.544-.544s.544.229.544.544a.526.526 0 0 1-.544.544m1.088 0a.526.526 0 0 1-.544-.544c0-.315.229-.544.544-.544s.544.229.544.544a.526.526 0 0 1-.544.544m1.088 0a.526.526 0 0 1-.544-.544c0-.315.229-.544.544-.544s.544.229.544.544a.526.526 0 0 1-.544.544m1.088 0a.526.526 0 0 1-.544-.544c0-.315.229-.544.544-.544s.544.229.544.544a.526.526 0 0 1-.544.544m1.088 0a.526.526 0 0 1-.544-.544c0-.315.229-.544.544-.544s.544.229.544.544a.526.526 0 0 1-.544.544m1.088 0a.526.526 0 0 1-.544-.544c0-.315.229-.544.544-.544s.544.229.544.544a.526.526 0 0 1-.544.544m1.088 0a.526.526 0 0 1-.544-.544c0-.315.229-.544.544-.544s.544.229.544.544a.526.526 0 0 1-.544.544m1.088 0a.526.526 0 0 1-.544-.544c0-.315.229-.544.544-.544.314 0 .544.229.544.544s-.23.544-.544.544m-7.616 1.088a.526.526 0 0 1-.544-.544c0-.315.229-.544.544-.544s.544.229.544.544a.526.526 0 0 1-.544.544m1.088 0a.526.526 0 0 1-.544-.544c0-.315.229-.544.544-.544s.544.229.544.544a.526.526 0 0 1-.544.544m1.088 0a.526.526 0 0 1-.544-.544c0-.315.229-.544.544-.544s.544.229.544.544a.526.526 0 0 1-.544.544m1.088 0a.526.526 0 0 1-.544-.544c0-.315.229-.544.544-.544s.544.229.544.544a.526.526 0 0 1-.544.544m1.088 0a.526.526 0 0 1-.544-.544c0-.315.229-.544.544-.544s.544.229.544.544a.526.526 0 0 1-.544.544m1.088 0a.526.526 0 0 1-.544-.544c0-.315.229-.544.544-.544s.544.229.544.544a.526.526 0 0 1-.544.544m1.088 0a.526.526 0 0 1-.544-.544c0-.315.229-.544.544-.544s.544.229.544.544a.526.526 0 0 1-.544.544m1.088 0a.526.526 0 0 1-.544-.544c0-.315.229-.544.544-.544.314 0 .544.229.544.544s-.23.544-.544.544M374.987 1.088a.526.526 0 0 1-.544-.544c0-.315.229-.544.544-.544s.544.229.544.544a.526.526 0 0 1-.544.544m1.088 0a.526.526 0 0 1-.544-.544c0-.315.229-.544.544-.544.314 0 .543.229.543.544a.526.526 0 0 1-.543.544m1.087 0a.527.527 0 0 1-.544-.544c0-.315.23-.544.544-.544s.544.229.544.544a.526.526 0 0 1-.544.544m1.088 0a.527.527 0 0 1-.544-.544c0-.315.23-.544.544-.544s.544.229.544.544a.526.526 0 0 1-.544.544m1.088 0a.526.526 0 0 1-.544-.544c0-.315.229-.544.544-.544s.544.229.544.544a.526.526 0 0 1-.544.544m1.088 0a.526.526 0 0 1-.544-.544c0-.315.229-.544.544-.544s.544.229.544.544a.526.526 0 0 1-.544.544m1.088 0a.526.526 0 0 1-.544-.544c0-.315.229-.544.544-.544s.544.229.544.544a.526.526 0 0 1-.544.544m1.088 0a.526.526 0 0 1-.544-.544c0-.315.229-.544.544-.544s.544.229.544.544a.526.526 0 0 1-.544.544m-7.615 1.088a.526.526 0 0 1-.544-.544c0-.315.229-.544.544-.544s.544.229.544.544a.526.526 0 0 1-.544.544m1.088 0a.526.526 0 0 1-.544-.544c0-.315.229-.544.544-.544.314 0 .543.229.543.544a.526.526 0 0 1-.543.544m1.087 0a.527.527 0 0 1-.544-.544c0-.315.23-.544.544-.544s.544.229.544.544a.526.526 0 0 1-.544.544m1.088 0a.527.527 0 0 1-.544-.544c0-.315.23-.544.544-.544s.544.229.544.544a.526.526 0 0 1-.544.544m1.088 0a.526.526 0 0 1-.544-.544c0-.315.229-.544.544-.544s.544.229.544.544a.526.526 0 0 1-.544.544m1.088 0a.526.526 0 0 1-.544-.544c0-.315.229-.544.544-.544s.544.229.544.544a.526.526 0 0 1-.544.544m1.088 0a.526.526 0 0 1-.544-.544c0-.315.229-.544.544-.544s.544.229.544.544a.526.526 0 0 1-.544.544m1.088 0a.526.526 0 0 1-.544-.544c0-.315.229-.544.544-.544s.544.229.544.544a.526.526 0 0 1-.544.544M384.84 1.088a.526.526 0 0 1-.544-.544c0-.315.229-.544.544-.544s.544.229.544.544a.526.526 0 0 1-.544.544m1.088 0a.526.526 0 0 1-.544-.544c0-.315.229-.544.544-.544s.544.229.544.544a.526.526 0 0 1-.544.544m1.088 0a.526.526 0 0 1-.544-.544c0-.315.229-.544.544-.544s.544.229.544.544a.526.526 0 0 1-.544.544m1.088 0a.526.526 0 0 1-.544-.544c0-.315.229-.544.544-.544s.544.229.544.544a.526.526 0 0 1-.544.544m1.088 0a.526.526 0 0 1-.544-.544c0-.315.229-.544.544-.544s.544.229.544.544a.526.526 0 0 1-.544.544m1.088 0a.526.526 0 0 1-.544-.544c0-.315.229-.544.544-.544s.544.229.544.544a.526.526 0 0 1-.544.544m1.088 0a.526.526 0 0 1-.544-.544c0-.315.229-.544.544-.544s.544.229.544.544a.526.526 0 0 1-.544.544m1.088 0a.526.526 0 0 1-.544-.544c0-.315.229-.544.544-.544s.544.229.544.544a.526.526 0 0 1-.544.544m-7.616 1.088a.526.526 0 0 1-.544-.544c0-.315.229-.544.544-.544s.544.229.544.544a.526.526 0 0 1-.544.544m1.088 0a.526.526 0 0 1-.544-.544c0-.315.229-.544.544-.544s.544.229.544.544a.526.526 0 0 1-.544.544m1.088 0a.526.526 0 0 1-.544-.544c0-.315.229-.544.544-.544s.544.229.544.544a.526.526 0 0 1-.544.544m1.088 0a.526.526 0 0 1-.544-.544c0-.315.229-.544.544-.544s.544.229.544.544a.526.526 0 0 1-.544.544m1.088 0a.526.526 0 0 1-.544-.544c0-.315.229-.544.544-.544s.544.229.544.544a.526.526 0 0 1-.544.544m1.088 0a.526.526 0 0 1-.544-.544c0-.315.229-.544.544-.544s.544.229.544.544a.526.526 0 0 1-.544.544m1.088 0a.526.526 0 0 1-.544-.544c0-.315.229-.544.544-.544s.544.229.544.544a.526.526 0 0 1-.544.544m1.088 0a.526.526 0 0 1-.544-.544c0-.315.229-.544.544-.544s.544.229.544.544a.526.526 0 0 1-.544.544"/></g></svg>