<svg preserveAspectRatio="none" width="100%" height="100%" overflow="visible" style="display: block;" viewBox="0 0 270 321" fill="none" xmlns="http://www.w3.org/2000/svg">
<g id="Frame 2095586361" clip-path="url(#clip0_0_4)">
<g id="Rectangle 136" filter="url(#filter0_ddd_0_4)">
<rect width="270" height="321" fill="var(--fill-0, #202020)"/>
</g>
<circle id="Ellipse 21892" cx="11.0004" cy="3.00007" r="7" fill="var(--fill-0, #131313)"/>
<circle id="Ellipse 21893" cx="31.0002" cy="3.00036" r="7" fill="var(--fill-0, #131313)"/>
<circle id="Ellipse 21894" cx="51" cy="2.99967" r="7" fill="var(--fill-0, #131313)"/>
<circle id="Ellipse 21895" cx="71" cy="3" r="7" fill="var(--fill-0, #131313)"/>
<circle id="Ellipse 21896" cx="90.9996" cy="3.00025" r="7" fill="var(--fill-0, #131313)"/>
<circle id="Ellipse 21897" cx="111" cy="2.9995" r="7" fill="var(--fill-0, #131313)"/>
<circle id="Ellipse 21898" cx="131" cy="3" r="7" fill="var(--fill-0, #131313)"/>
<circle id="Ellipse 21899" cx="151" cy="3" r="7" fill="var(--fill-0, #131313)"/>
<circle id="Ellipse 21900" cx="171" cy="3.00037" r="7" fill="var(--fill-0, #131313)"/>
<circle id="Ellipse 21901" cx="190.999" cy="2.99969" r="7" fill="var(--fill-0, #131313)"/>
<circle id="Ellipse 21902" cx="211" cy="2.99991" r="7" fill="var(--fill-0, #131313)"/>
<circle id="Ellipse 21903" cx="231" cy="3" r="7" fill="var(--fill-0, #131313)"/>
<circle id="Ellipse 21904" cx="251" cy="3.00049" r="7" fill="var(--fill-0, #131313)"/>
<circle id="Ellipse 21905" cx="271" cy="2.9998" r="7" fill="var(--fill-0, #131313)"/>
<path id="Vector" d="M13.9788 18.0514C12.4847 12.9578 10.8045 7.88116 9.48718 2.73872C8.45892 -1.27535 13.2238 -5.32634 16.9794 -2.88011C18.0912 -2.15579 18.5775 -1.02949 18.9481 0.175663C19.6144 2.34327 20.2252 4.52954 20.8634 6.7055C22.3379 11.7321 23.9816 16.74 25.2944 21.8114C26.5616 26.7065 19.3071 28.496 17.5916 23.9144C15.7993 19.1276 18.5179 27.2485 17.0786 22.3417C16.8589 21.5927 18.0225 21.25 18.2426 22.0003C19.4149 25.9966 16.7483 16.7295 17.9205 20.7258C18.2416 21.8205 18.4262 23.2202 19.0469 24.2103C20.6474 26.7633 24.8432 25.0652 24.1304 22.1529C23.1664 18.2138 21.8357 14.3298 20.6945 10.4392C19.6831 6.99121 18.8869 3.37277 17.6332 0.00296699C16.4659 -3.13456 11.774 -2.92068 10.6585 0.259916C10.304 1.27108 10.4976 1.87358 10.7714 2.80686C12.0248 7.0799 13.2782 11.3531 14.5316 15.6262C15.7851 19.8993 17.0385 24.1725 18.2919 28.4456C18.8224 30.2539 19.4418 32.2395 21.2893 33.0998C23.389 34.0778 26.3089 33.0272 27.4476 31.0793C29.0632 28.3157 26.7092 23.4643 25.9183 20.768C24.6395 16.4085 23.3608 12.049 22.082 7.68965C21.8623 6.94061 23.026 6.59801 23.2461 7.3482C24.6467 12.1232 26.0474 16.8981 27.448 21.6732C28.3056 24.5966 30.1679 28.5018 28.6163 31.48C27.6244 33.3835 25.3623 34.6161 23.2362 34.682C20.4942 34.7669 18.5513 32.8756 17.6316 30.4214C16.133 26.4233 15.1795 22.1447 13.9788 18.0514Z" fill="var(--fill-0, #4D4D4D)"/>
<g id="Group 59">
<path id="Vector 57" d="M238.5 36.0004L218 56.5004" stroke="var(--stroke-0, #4D4D4D)" stroke-width="0.301471"/>
<path id="Vector 58" d="M238.5 50.5006L218 71.0006" stroke="var(--stroke-0, #4D4D4D)" stroke-width="0.301471"/>
</g>
<g id="Group 60">
<path id="Vector 57_2" d="M64.5 28L44 48.5" stroke="var(--stroke-0, #4D4D4D)" stroke-width="0.301471"/>
<path id="Vector 58_2" d="M64.5003 42.5002L44.0003 63.0002" stroke="var(--stroke-0, #4D4D4D)" stroke-width="0.301471"/>
</g>
</g>
<defs>
<filter id="filter0_ddd_0_4" x="-47" y="-10" width="364" height="456" filterUnits="userSpaceOnUse" color-interpolation-filters="sRGB">
<feFlood flood-opacity="0" result="BackgroundImageFix"/>
<feColorMatrix in="SourceAlpha" type="matrix" values="0 0 0 0 0 0 0 0 0 0 0 0 0 0 0 0 0 0 127 0" result="hardAlpha"/>
<feOffset dy="9"/>
<feGaussianBlur stdDeviation="9.5"/>
<feColorMatrix type="matrix" values="0 0 0 0 0 0 0 0 0 0 0 0 0 0 0 0 0 0 0.1 0"/>
<feBlend mode="normal" in2="BackgroundImageFix" result="effect1_dropShadow_0_4"/>
<feColorMatrix in="SourceAlpha" type="matrix" values="0 0 0 0 0 0 0 0 0 0 0 0 0 0 0 0 0 0 127 0" result="hardAlpha"/>
<feOffset dy="35"/>
<feGaussianBlur stdDeviation="17.5"/>
<feColorMatrix type="matrix" values="0 0 0 0 0 0 0 0 0 0 0 0 0 0 0 0 0 0 0.09 0"/>
<feBlend mode="normal" in2="effect1_dropShadow_0_4" result="effect2_dropShadow_0_4"/>
<feColorMatrix in="SourceAlpha" type="matrix" values="0 0 0 0 0 0 0 0 0 0 0 0 0 0 0 0 0 0 127 0" result="hardAlpha"/>
<feOffset dy="78"/>
<feGaussianBlur stdDeviation="23.5"/>
<feColorMatrix type="matrix" values="0 0 0 0 0 0 0 0 0 0 0 0 0 0 0 0 0 0 0.05 0"/>
<feBlend mode="normal" in2="effect2_dropShadow_0_4" result="effect3_dropShadow_0_4"/>
<feBlend mode="normal" in="SourceGraphic" in2="effect3_dropShadow_0_4" result="shape"/>
</filter>
<clipPath id="clip0_0_4">
<rect width="270" height="321" fill="white"/>
</clipPath>
</defs>
</svg>
